999
DXF file generated by netDxf https://github.com/haplokuon/netDxf, Copyright(C) Daniel Carvajal, Licensed under MIT
0
SECTION
2
HEADER
9
$ACADVER
1
AC1015
9
$DWGCODEPAGE
3
ANSI_1252
9
$HANDSEED
5
15E
9
$ANGBASE
50
0.0
9
$ANGDIR
70
0
9
$ATTMODE
70
1
9
$AUNITS
70
0
9
$AUPREC
70
0
9
$CECOLOR
62
256
9
$CELTSCALE
40
1.0
9
$CELTYPE
6
ByLayer
9
$CELWEIGHT
370
-1
9
$CLAYER
8
0
9
$CMLJUST
70
0
9
$CMLSCALE
40
20.0
9
$CMLSTYLE
2
Standard
9
$DIMSTYLE
2
Standard
9
$TEXTSIZE
40
2.5
9
$TEXTSTYLE
7
Standard
9
$LUNITS
70
2
9
$LUPREC
70
4
9
$MIRRTEXT
70
0
9
$EXTNAMES
290
1
9
$INSBASE
10
0.0
20
0.0
30
0.0
9
$INSUNITS
70
0
9
$LTSCALE
40
1.0
9
$LWDISPLAY
290
0
9
$PDMODE
70
0
9
$PDSIZE
40
0.0
9
$PLINEGEN
70
0
9
$PSLTSCALE
70
1
9
$SPLINESEGS
70
8
9
$SURFU
70
6
9
$SURFV
70
6
9
$TDCREATE
40
2460175.63812546
9
$TDUCREATE
40
2460175.51312546
9
$TDUPDATE
40
2460175.63812546
9
$TDUUPDATE
40
2460175.51312546
9
$TDINDWG
40
0.0
9
$UCSORG
10
0.0
20
0.0
30
0.0
9
$UCSXDIR
10
1.0
20
0.0
30
0.0
9
$UCSYDIR
10
0.0
20
1.0
30
0.0
9
$DIMADEC
70
0
9
$DIMALT
70
0
9
$DIMALTD
70
2
9
$DIMALTF
40
25.4
9
$DIMALTRND
40
0.0
9
$DIMALTTD
70
2
9
$DIMALTTZ
70
0
9
$DIMALTU
70
2
9
$DIMALTZ
70
0
9
$DIMAPOST
1
[]
9
$DIMATFIT
70
3
9
$DIMAUNIT
70
0
9
$DIMASZ
40
0.18
9
$DIMAZIN
70
0
9
$DIMSAH
70
0
9
$DIMBLK
1

9
$DIMLDRBLK
1

9
$DIMCEN
40
0.09
9
$DIMCLRD
70
0
9
$DIMCLRE
70
0
9
$DIMCLRT
70
0
9
$DIMDEC
70
4
9
$DIMDLE
40
0.0
9
$DIMDLI
40
0.38
9
$DIMDSEP
70
46
9
$DIMEXE
40
0.18
9
$DIMEXO
40
0.0625
9
$DIMFXLON
70
0
9
$DIMFXL
40
1.0
9
$DIMGAP
40
0.09
9
$DIMJUST
70
0
9
$DIMLFAC
40
1.0
9
$DIMLUNIT
70
2
9
$DIMLWD
70
-2
9
$DIMLWE
70
-2
9
$DIMPOST
1
<>
9
$DIMRND
40
0.0
9
$DIMSCALE
40
1.0
9
$DIMSD1
70
0
9
$DIMSD2
70
0
9
$DIMSE1
70
0
9
$DIMSE2
70
0
9
$DIMSOXD
70
0
9
$DIMTAD
70
0
9
$DIMTDEC
70
4
9
$DIMTFAC
40
1.0
9
$DIMTIH
70
0
9
$DIMTIX
70
0
9
$DIMTM
40
0.0
9
$DIMTMOVE
70
0
9
$DIMTOFL
70
0
9
$DIMTOH
70
0
9
$DIMTOL
70
0
9
$DIMLIM
70
0
9
$DIMTOLJ
70
1
9
$DIMTP
40
0.0
9
$DIMTXT
40
0.18
9
$DIMTXTDIRECTION
70
0
9
$DIMTZIN
70
0
9
$DIMZIN
70
0
9
$DIMFRAC
70
0
9
$DIMLTYPE
6
ByBlock
9
$DIMLTEX1
6
ByBlock
9
$DIMLTEX2
6
ByBlock
0
ENDSEC
0
SECTION
2
CLASSES
0
CLASS
1
RASTERVARIABLES
2
AcDbRasterVariables
3
ISM
90
0
280
0
281
0
0
ENDSEC
0
SECTION
2
TABLES
0
TABLE
2
APPID
5
4
330
0
100
AcDbSymbolTable
70
5
0
APPID
5
19
330
4
100
AcDbSymbolTableRecord
100
AcDbRegAppTableRecord
2
ACAD
70
0
0
APPID
5
55
330
4
100
AcDbSymbolTableRecord
100
AcDbRegAppTableRecord
2
AcCmTransparency
70
0
0
APPID
5
56
330
4
100
AcDbSymbolTableRecord
100
AcDbRegAppTableRecord
2
AcAecLayerStandard
70
0
0
APPID
5
57
330
4
100
AcDbSymbolTableRecord
100
AcDbRegAppTableRecord
2
GradientColor1ACI
70
0
0
APPID
5
58
330
4
100
AcDbSymbolTableRecord
100
AcDbRegAppTableRecord
2
GradientColor2ACI
70
0
0
ENDTAB
0
TABLE
2
VPORT
5
1
330
0
100
AcDbSymbolTable
70
1
0
VPORT
5
2
330
1
100
AcDbSymbolTableRecord
100
AcDbViewportTableRecord
2
*Active
70
0
10
0.0
20
0.0
11
1.0
21
1.0
12
0.0
22
0.0
13
0.0
23
0.0
14
0.5
24
0.5
15
10.0
25
10.0
16
0.0
26
0.0
36
1.0
17
0.0
27
0.0
37
0.0
40
10.0
41
1.0
75
0
76
1
0
ENDTAB
0
TABLE
2
LTYPE
5
7
330
0
100
AcDbSymbolTable
70
3
0
LTYPE
5
15
330
7
100
AcDbSymbolTableRecord
100
AcDbLinetypeTableRecord
2
Continuous
70
0
3
Solid line
72
65
73
0
40
0.0
0
LTYPE
5
16
330
7
100
AcDbSymbolTableRecord
100
AcDbLinetypeTableRecord
2
ByLayer
70
0
3

72
65
73
0
40
0.0
0
LTYPE
5
17
330
7
100
AcDbSymbolTableRecord
100
AcDbLinetypeTableRecord
2
ByBlock
70
0
3

72
65
73
0
40
0.0
0
ENDTAB
0
TABLE
2
LAYER
5
5
102
{ACAD_XDICTIONARY
360
6
102
}
330
0
100
AcDbSymbolTable
70
3
0
LAYER
5
14
330
5
100
AcDbSymbolTableRecord
100
AcDbLayerTableRecord
2
0
70
0
62
7
6
Continuous
290
1
370
-3
390
0
0
LAYER
5
23
330
5
100
AcDbSymbolTableRecord
100
AcDbLayerTableRecord
2
\U+042D\U+041C \U+0422\U+0430\U+0431\U+043B\U+0438\U+0446\U+0430
70
0
62
7
6
Continuous
290
1
370
-3
390
0
0
LAYER
5
39
330
5
100
AcDbSymbolTableRecord
100
AcDbLayerTableRecord
2
\U+042D\U+041C \U+0422\U+0435\U+043A\U+0441\U+0442
70
0
62
7
6
Continuous
290
1
370
-3
390
0
0
ENDTAB
0
TABLE
2
STYLE
5
8
330
0
100
AcDbSymbolTable
70
1
0
STYLE
5
18
330
8
100
AcDbSymbolTableRecord
100
AcDbTextStyleTableRecord
2
Standard
3
simplex.shx
70
0
71
0
40
0.0
41
1.0
42
0.0
50
0.0
0
ENDTAB
0
TABLE
2
DIMSTYLE
5
A
330
0
100
AcDbSymbolTable
70
1
100
AcDbDimStyleTable
0
DIMSTYLE
105
1A
330
A
100
AcDbSymbolTableRecord
100
AcDbDimStyleTableRecord
2
Standard
3
<>
4
[]
40
1.0
41
0.18
42
0.0625
43
0.38
44
0.18
45
0.0
46
0.0
47
0.0
48
0.0
49
1.0
70
0
71
0
72
0
73
0
74
0
75
0
76
0
77
0
78
0
79
0
140
0.18
141
0.09
143
25.4
144
1.0
146
1.0
147
0.09
148
0.0
170
0
171
2
172
0
174
0
175
0
176
0
177
0
178
0
179
0
271
4
272
4
273
2
274
2
275
0
276
0
277
2
278
46
279
0
280
0
281
0
282
0
283
1
284
0
285
0
286
0
289
3
290
0
294
0
340
18
173
0
345
17
346
17
347
17
371
-2
372
-2
0
ENDTAB
0
TABLE
2
VIEW
5
3
330
0
100
AcDbSymbolTable
70
0
0
ENDTAB
0
TABLE
2
UCS
5
C
330
0
100
AcDbSymbolTable
70
0
0
ENDTAB
0
TABLE
2
BLOCK_RECORD
5
D
330
0
100
AcDbSymbolTable
70
2
0
BLOCK_RECORD
5
1C
330
D
100
AcDbSymbolTableRecord
100
AcDbBlockTableRecord
2
*Model_Space
340
20
0
BLOCK_RECORD
5
4F
330
D
100
AcDbSymbolTableRecord
100
AcDbBlockTableRecord
2
*Paper_Space
340
54
0
ENDTAB
0
ENDSEC
0
SECTION
2
BLOCKS
0
BLOCK
5
1E
330
1C
100
AcDbEntity
67
0
8
0
100
AcDbBlockBegin
2
*Model_Space
70
0
10
0.0
20
0.0
30
0.0
3
*Model_Space
4

0
ENDBLK
5
1D
330
1C
100
AcDbEntity
8
0
100
AcDbBlockEnd
0
BLOCK
5
51
330
4F
100
AcDbEntity
67
1
8
0
100
AcDbBlockBegin
2
*Paper_Space
70
0
10
0.0
20
0.0
30
0.0
3
*Paper_Space
4

0
ENDBLK
5
50
330
4F
100
AcDbEntity
8
0
100
AcDbBlockEnd
0
ENDSEC
0
SECTION
2
ENTITIES
0
LINE
5
22
330
1C
100
AcDbEntity
67
0
8
\U+042D\U+041C \U+0422\U+0430\U+0431\U+043B\U+0438\U+0446\U+0430
62
256
6
ByLayer
370
-1
48
1.0
60
0
100
AcDbLine
10
70.0
20
70.0
30
0.0
11
10.0
21
70.0
31
0.0
39
0.0
210
0.0
220
0.0
230
1.0
0
LINE
5
24
330
1C
100
AcDbEntity
67
0
8
\U+042D\U+041C \U+0422\U+0430\U+0431\U+043B\U+0438\U+0446\U+0430
62
256
6
ByLayer
370
-1
48
1.0
60
0
100
AcDbLine
10
35.0
20
85.0
30
0.0
11
35.0
21
200.0
31
0.0
39
0.0
210
0.0
220
0.0
230
1.0
0
LINE
5
25
330
1C
100
AcDbEntity
67
0
8
\U+042D\U+041C \U+0422\U+0430\U+0431\U+043B\U+0438\U+0446\U+0430
62
256
6
ByLayer
370
-1
48
1.0
60
0
100
AcDbLine
10
70.0
20
85.0
30
0.0
11
0.0
21
85.0
31
0.0
39
0.0
210
0.0
220
0.0
230
1.0
0
LINE
5
26
330
1C
100
AcDbEntity
67
0
8
\U+042D\U+041C \U+0422\U+0430\U+0431\U+043B\U+0438\U+0446\U+0430
62
256
6
ByLayer
370
-1
48
1.0
60
0
100
AcDbLine
10
70.0
20
155.0
30
0.0
11
0.0
21
155.0
31
0.0
39
0.0
210
0.0
220
0.0
230
1.0
0
LINE
5
27
330
1C
100
AcDbEntity
67
0
8
\U+042D\U+041C \U+0422\U+0430\U+0431\U+043B\U+0438\U+0446\U+0430
62
256
6
ByLayer
370
-1
48
1.0
60
0
100
AcDbLine
10
70.0
20
130.0
30
0.0
11
0.0
21
130.0
31
0.0
39
0.0
210
0.0
220
0.0
230
1.0
0
LINE
5
28
330
1C
100
AcDbEntity
67
0
8
\U+042D\U+041C \U+0422\U+0430\U+0431\U+043B\U+0438\U+0446\U+0430
62
256
6
ByLayer
370
-1
48
1.0
60
0
100
AcDbLine
10
70.0
20
270.0
30
0.0
11
0.0
21
270.0
31
0.0
39
0.0
210
0.0
220
0.0
230
1.0
0
LINE
5
29
330
1C
100
AcDbEntity
67
0
8
\U+042D\U+041C \U+0422\U+0430\U+0431\U+043B\U+0438\U+0446\U+0430
62
256
6
ByLayer
370
-1
48
1.0
60
0
100
AcDbLine
10
70.0
20
0.0
30
0.0
11
70.0
21
270.0
31
0.0
39
0.0
210
0.0
220
0.0
230
1.0
0
LINE
5
2A
330
1C
100
AcDbEntity
67
0
8
\U+042D\U+041C \U+0422\U+0430\U+0431\U+043B\U+0438\U+0446\U+0430
62
256
6
ByLayer
370
-1
48
1.0
60
0
100
AcDbLine
10
70.0
20
260.0
30
0.0
11
0.0
21
260.0
31
0.0
39
0.0
210
0.0
220
0.0
230
1.0
0
LINE
5
2B
330
1C
100
AcDbEntity
67
0
8
\U+042D\U+041C \U+0422\U+0430\U+0431\U+043B\U+0438\U+0446\U+0430
62
256
6
ByLayer
370
-1
48
1.0
60
0
100
AcDbLine
10
-0.99
20
0.32
30
0.0
11
0.0
21
0.0
31
0.0
39
0.0
210
0.0
220
0.0
230
1.0
0
LINE
5
2C
330
1C
100
AcDbEntity
67
0
8
\U+042D\U+041C \U+0422\U+0430\U+0431\U+043B\U+0438\U+0446\U+0430
62
256
6
ByLayer
370
-1
48
1.0
60
0
100
AcDbLine
10
70.0
20
70.0
30
0.0
11
10.0
21
70.0
31
0.0
39
0.0
210
0.0
220
0.0
230
1.0
0
LINE
5
2D
330
1C
100
AcDbEntity
67
0
8
\U+042D\U+041C \U+0422\U+0430\U+0431\U+043B\U+0438\U+0446\U+0430
62
256
6
ByLayer
370
-1
48
1.0
60
0
100
AcDbLine
10
70.0
20
200.0
30
0.0
11
0.0
21
200.0
31
0.0
39
0.0
210
0.0
220
0.0
230
1.0
0
LINE
5
2E
330
1C
100
AcDbEntity
67
0
8
\U+042D\U+041C \U+0422\U+0430\U+0431\U+043B\U+0438\U+0446\U+0430
62
256
6
ByLayer
370
-1
48
1.0
60
0
100
AcDbLine
10
15.0
20
200.0
30
0.0
11
15.0
21
260.0
31
0.0
39
0.0
210
0.0
220
0.0
230
1.0
0
LINE
5
2F
330
1C
100
AcDbEntity
67
0
8
\U+042D\U+041C \U+0422\U+0430\U+0431\U+043B\U+0438\U+0446\U+0430
62
256
6
ByLayer
370
-1
48
1.0
60
0
100
AcDbLine
10
70.0
20
240.0
30
0.0
11
0.0
21
240.0
31
0.0
39
0.0
210
0.0
220
0.0
230
1.0
0
LINE
5
30
330
1C
100
AcDbEntity
67
0
8
\U+042D\U+041C \U+0422\U+0430\U+0431\U+043B\U+0438\U+0446\U+0430
62
256
6
ByLayer
370
-1
48
1.0
60
0
100
AcDbLine
10
70.0
20
220.0
30
0.0
11
0.0
21
220.0
31
0.0
39
0.0
210
0.0
220
0.0
230
1.0
0
LINE
5
31
330
1C
100
AcDbEntity
67
0
8
\U+042D\U+041C \U+0422\U+0430\U+0431\U+043B\U+0438\U+0446\U+0430
62
256
6
ByLayer
370
-1
48
1.0
60
0
100
AcDbLine
10
70.0
20
20.0
30
0.0
11
10.0
21
10.0
31
0.0
39
0.0
210
0.0
220
0.0
230
1.0
0
LINE
5
32
330
1C
100
AcDbEntity
67
0
8
\U+042D\U+041C \U+0422\U+0430\U+0431\U+043B\U+0438\U+0446\U+0430
62
256
6
ByLayer
370
-1
48
1.0
60
0
100
AcDbLine
10
70.0
20
20.0
30
0.0
11
10.0
21
20.0
31
0.0
39
0.0
210
0.0
220
0.0
230
1.0
0
LINE
5
33
330
1C
100
AcDbEntity
67
0
8
\U+042D\U+041C \U+0422\U+0430\U+0431\U+043B\U+0438\U+0446\U+0430
62
256
6
ByLayer
370
-1
48
1.0
60
0
100
AcDbLine
10
70.0
20
10.0
30
0.0
11
10.0
21
10.0
31
0.0
39
0.0
210
0.0
220
0.0
230
1.0
0
LINE
5
34
330
1C
100
AcDbEntity
67
0
8
\U+042D\U+041C \U+0422\U+0430\U+0431\U+043B\U+0438\U+0446\U+0430
62
256
6
ByLayer
370
-1
48
1.0
60
0
100
AcDbLine
10
70.0
20
30.0
30
0.0
11
10.0
21
30.0
31
0.0
39
0.0
210
0.0
220
0.0
230
1.0
0
LINE
5
35
330
1C
100
AcDbEntity
67
0
8
\U+042D\U+041C \U+0422\U+0430\U+0431\U+043B\U+0438\U+0446\U+0430
62
256
6
ByLayer
370
-1
48
1.0
60
0
100
AcDbLine
10
70.0
20
50.0
30
0.0
11
10.0
21
50.0
31
0.0
39
0.0
210
0.0
220
0.0
230
1.0
0
LINE
5
36
330
1C
100
AcDbEntity
67
0
8
\U+042D\U+041C \U+0422\U+0430\U+0431\U+043B\U+0438\U+0446\U+0430
62
256
6
ByLayer
370
-1
48
1.0
60
0
100
AcDbLine
10
70.0
20
40.0
30
0.0
11
10.0
21
40.0
31
0.0
39
0.0
210
0.0
220
0.0
230
1.0
0
LINE
5
37
330
1C
100
AcDbEntity
67
0
8
\U+042D\U+041C \U+0422\U+0430\U+0431\U+043B\U+0438\U+0446\U+0430
62
256
6
ByLayer
370
-1
48
1.0
60
0
100
AcDbLine
10
10.0
20
0.0
30
0.0
11
10.0
21
85.0
31
0.0
39
0.0
210
0.0
220
0.0
230
1.0
0
MTEXT
5
38
330
1C
100
AcDbEntity
67
0
8
\U+042D\U+041C \U+0422\U+0435\U+043A\U+0441\U+0442
62
256
6
ByLayer
370
-1
48
1.0
60
0
100
AcDbMText
10
11.5309
20
210.0
30
0.0
210
0.0
220
0.0
230
1.0
1
\U+041F\U+0443\U+0441\U+043A\U+043E\U+0432\U+043E\U+0439 \P\U+0430\U+043F\U+043F\U+0430\U+0440\U+0430\U+0442
40
2.5
41
0.0
44
1.0
11
0.0000000267948966
21
1.0
31
0.0
71
8
72
5
73
1
7
Standard
0
MTEXT
5
3A
330
1C
100
AcDbEntity
67
0
8
\U+042D\U+041C \U+0422\U+0435\U+043A\U+0441\U+0442
62
256
6
ByLayer
370
-1
48
1.0
60
0
100
AcDbMText
10
42.5
20
206.0804
30
0.0
210
0.0
220
0.0
230
1.0
1
\U+0422\U+0438\U+043F, \PI\U+043D
40
2.5
41
0.0
44
1.0
11
1.0
21
0.0
31
0.0
71
8
72
5
73
1
7
Standard
0
MTEXT
5
3B
330
1C
100
AcDbEntity
67
0
8
\U+042D\U+041C \U+0422\U+0435\U+043A\U+0441\U+0442
62
256
6
ByLayer
370
-1
48
1.0
60
0
100
AcDbMText
10
42.5
20
222.5
30
0.0
210
0.0
220
0.0
230
1.0
3
\W0.8x\U+041E\U+0431\U+043E\U+0437\U+043D\U+0430\U+0447\U+0435\U+043D\U+0438\U+0435, \P\U+0422\U+0438\U+043F, \PI\U+043D\P{\O\U+0422\U+0438\U+043F \U+0445\U+0430\U+0440\U+0430\U+043A\U+0442\U+0435\U+0440\U+0438\U+0441\U+0442\U+0438\U+043A\U+0438 I\U+
1
0440\U+0430\U+0441\U+0446/I\H0.64x;\o\U+0394}
40
2.5
41
0.0
44
1.0
11
1.0
21
0.0
31
0.0
71
8
72
5
73
1
7
Standard
0
MTEXT
5
3C
330
1C
100
AcDbEntity
67
0
8
\U+042D\U+041C \U+0422\U+0435\U+043A\U+0441\U+0442
62
256
6
ByLayer
370
-1
48
1.0
60
0
100
AcDbMText
10
11.5309
20
250.0
30
0.0
210
0.0
220
0.0
230
1.0
1
\U+0421\U+0431\U+043E\U+0440\U+043D\U+044B\U+0435 \P\U+0448\U+0438\U+043D\U+044B
40
2.5
41
0.0
44
1.0
11
0.0000000267948966
21
1.0
31
0.0
71
8
72
5
73
1
7
Standard
0
MTEXT
5
3D
330
1C
100
AcDbEntity
67
0
8
\U+042D\U+041C \U+0422\U+0435\U+043A\U+0441\U+0442
62
256
6
ByLayer
370
-1
48
1.0
60
0
100
AcDbMText
10
12.7856
20
230.0
30
0.0
210
0.0
220
0.0
230
1.0
1
\W0.8x\U+0410\U+043F\U+043F\U+0430\U+0440\U+0430\U+0442\U+044B \P\U+043E\U+0442\U+0445\U+043E\U+0434\U+044F\U+0449\U+0438\U+0445 \P\U+043B\U+0438\U+043D\U+0438\U+0439
40
2.5
41
0.0
44
1.0
11
0.0000000267948966
21
1.0
31
0.0
71
8
72
5
73
1
7
Standard
0
MTEXT
5
3E
330
1C
100
AcDbEntity
67
0
8
\U+042D\U+041C \U+0422\U+0435\U+043A\U+0441\U+0442
62
256
6
ByLayer
370
-1
48
1.0
60
0
100
AcDbMText
10
43.27
20
242.0
30
0.0
210
0.0
220
0.0
230
1.0
3
\U+041D\U+0430\U+043F\U+0440\U+044F\U+0436\U+0435\U+043D\U+0438\U+0435, \P\U+0423\U+0441\U+0442\U+0430\U+043D\U+043E\U+0432\U+043B\U+0435\U+043D\U+043D\U+0430\U+044F \U+043C\U+043E\U+0449\U+043D\U+043E\U+0441\U+0442\U+044C, \P\U+0420\U+0430\U+0441\U+
1
0447\U+0435\U+0442\U+043D\U+0430\U+044F \U+043C\U+043E\U+0449\U+043D\U+043E\U+0441\U+0442\U+044C, \P\U+0420\U+0430\U+0441\U+0447\U+0435\U+0442\U+043D\U+044B\U+0439 \U+0442\U+043E\U+043A
40
2.5
41
0.0
44
1.0
11
1.0
21
0.0
31
0.0
71
8
72
5
73
1
7
Standard
0
MTEXT
5
3F
330
1C
100
AcDbEntity
67
0
8
\U+042D\U+041C \U+0422\U+0435\U+043A\U+0441\U+0442
62
256
6
ByLayer
370
-1
48
1.0
60
0
100
AcDbMText
10
35.0
20
265.0
30
0.0
210
0.0
220
0.0
230
1.0
1
\U+0414\U+0430\U+043D\U+043D\U+044B\U+0435 \U+043F\U+0438\U+0442\U+0430\U+044E\U+0449\U+0435\U+0439 \U+0441\U+0435\U+0442\U+0438
40
2.5
41
0.0
44
1.0
11
1.0
21
0.0
31
0.0
71
8
72
5
73
1
7
Standard
0
MTEXT
5
40
330
1C
100
AcDbEntity
67
0
8
\U+042D\U+041C \U+0422\U+0435\U+043A\U+0441\U+0442
62
256
6
ByLayer
370
-1
48
1.0
60
0
100
AcDbMText
10
17.5
20
177.5
30
0.0
210
0.0
220
0.0
230
1.0
1
\U+041C\U+0430\U+0440\U+043A\U+0430 \U+0438 \P\U+0441\U+0435\U+0447\U+0435\U+043D\U+0438\U+0435 \P\U+043A\U+0430\U+0431\U+0435\U+043B\U+044F
40
2.5
41
0.0
44
1.0
11
1.0
21
0.0
31
0.0
71
8
72
5
73
1
7
Standard
0
MTEXT
5
41
330
1C
100
AcDbEntity
67
0
8
\U+042D\U+041C \U+0422\U+0435\U+043A\U+0441\U+0442
62
256
6
ByLayer
370
-1
48
1.0
60
0
100
AcDbMText
10
55.0
20
12.5
30
0.0
210
0.0
220
0.0
230
1.0
1
{\H0.64x;\U+0394}U/{\H0.64x;\U+0394}U\U+043F\U+0443\U+0441\U+043A
40
2.5
41
0.0
44
1.0
11
1.0
21
0.0
31
0.0
71
8
72
5
73
1
7
Standard
0
MTEXT
5
42
330
1C
100
AcDbEntity
67
0
8
\U+042D\U+041C \U+0422\U+0435\U+043A\U+0441\U+0442
62
256
6
ByLayer
370
-1
48
1.0
60
0
100
AcDbMText
10
40.0
20
1.33
30
0.0
210
0.0
220
0.0
230
1.0
1
\U+041D\U+043E\U+043C\U+0435\U+0440 \U+043F\U+043E \U+0413\U+041F \P(\U+044D\U+043A\U+0441\U+043F\U+043B\U+0438\U+043A\U+0430\U+0446\U+0438\U+0438 \U+043F\U+043E\U+043C\U+0435\U+0449\U+0435\U+043D\U+0438\U+0439)
40
2.5
41
0.0
44
1.0
11
1.0
21
0.0
31
0.0
71
8
72
5
73
1
7
Standard
0
MTEXT
5
43
330
1C
100
AcDbEntity
67
0
8
\U+042D\U+041C \U+0422\U+0435\U+043A\U+0441\U+0442
62
256
6
ByLayer
370
-1
48
1.0
60
0
100
AcDbMText
10
25.0
20
17.5
30
0.0
210
0.0
220
0.0
230
1.0
1
I\U+043E\U+043A\U+0437
40
2.5
41
0.0
44
1.0
11
1.0
21
0.0
31
0.0
71
8
72
5
73
1
7
Standard
0
MTEXT
5
44
330
1C
100
AcDbEntity
67
0
8
\U+042D\U+041C \U+0422\U+0435\U+043A\U+0441\U+0442
62
256
6
ByLayer
370
-1
48
1.0
60
0
100
AcDbMText
10
40.0
20
25.0
30
0.0
210
0.0
220
0.0
230
1.0
1
\W0.8x\U+041A\U+043B\U+0430\U+0441\U+0441 \U+0432\U+0437\U+0440\U+044B\U+0432\U+043E-, \U+043F\U+043E\U+0436\U+0430\U+0440\U+043E\U+043E\U+043F\U+0430\U+0441\U+043D\U+044B\U+0445 \U+0437\U+043E\U+043D
40
2.5
41
0.0
44
1.0
11
1.0
21
0.0
31
0.0
71
8
72
5
73
1
7
Standard
0
MTEXT
5
45
330
1C
100
AcDbEntity
67
0
8
\U+042D\U+041C \U+0422\U+0435\U+043A\U+0441\U+0442
62
256
6
ByLayer
370
-1
48
1.0
60
0
100
AcDbMText
10
40.0
20
35.0
30
0.0
210
0.0
220
0.0
230
1.0
1
I\U+043D\U+043E\U+043C/I\U+043F\U+0443\U+0441\U+043A, \U+0410
40
2.5
41
0.0
44
1.0
11
1.0
21
0.0
31
0.0
71
8
72
5
73
1
7
Standard
0
MTEXT
5
46
330
1C
100
AcDbEntity
67
0
8
\U+042D\U+041C \U+0422\U+0435\U+043A\U+0441\U+0442
62
256
6
ByLayer
370
-1
48
1.0
60
0
100
AcDbMText
10
17.5
20
107.5
30
0.0
210
0.0
220
0.0
230
1.0
1
\U+041C\U+0430\U+0440\U+043A\U+0430 \U+0438 \U+0441\U+0435\U+0447\U+0435\U+043D\U+0438\U+0435 \P\U+043A\U+0430\U+0431\U+0435\U+043B\U+044F
40
2.5
41
0.0
44
1.0
11
1.0
21
0.0
31
0.0
71
8
72
5
73
1
7
Standard
0
MTEXT
5
47
330
1C
100
AcDbEntity
67
0
8
\U+042D\U+041C \U+0422\U+0435\U+043A\U+0441\U+0442
62
256
6
ByLayer
370
-1
48
1.0
60
0
100
AcDbMText
10
52.5
20
107.5
30
0.0
210
0.0
220
0.0
230
1.0
1
\U+041E\U+0431\U+043E\U+0437\U+043D\U+0430\U+0447\U+0435\U+043D\U+0438\U+0435 \P\U+0443\U+0447\U+0430\U+0441\U+0442\U+043A\U+0430, \P\U+0434\U+043B\U+0438\U+043D\U+0430
40
2.5
41
0.0
44
1.0
11
1.0
21
0.0
31
0.0
71
8
72
5
73
1
7
Standard
0
MTEXT
5
48
330
1C
100
AcDbEntity
67
0
8
\U+042D\U+041C \U+0422\U+0435\U+043A\U+0441\U+0442
62
256
6
ByLayer
370
-1
48
1.0
60
0
100
AcDbMText
10
52.5
20
142.5
30
0.0
210
0.0
220
0.0
230
1.0
1
\U+041E\U+0431\U+043E\U+0437\U+043D\U+0430\U+0447\U+0435\U+043D\U+0438\U+0435, \P\U+0442\U+0438\U+043F
40
2.5
41
0.0
44
1.0
11
1.0
21
0.0
31
0.0
71
8
72
5
73
1
7
Standard
0
MTEXT
5
49
330
1C
100
AcDbEntity
67
0
8
\U+042D\U+041C \U+0422\U+0435\U+043A\U+0441\U+0442
62
256
6
ByLayer
370
-1
48
1.0
60
0
100
AcDbMText
10
55.0
20
177.5
30
0.0
210
0.0
220
0.0
230
1.0
1
\U+041E\U+0431\U+043E\U+0437\U+043D\U+0430\U+0447\U+0435\U+043D\U+0438\U+0435 \P\U+0443\U+0447\U+0430\U+0441\U+0442\U+043A\U+0430, \P\U+0434\U+043B\U+0438\U+043D\U+0430
40
2.5
41
0.0
44
1.0
11
1.0
21
0.0
31
0.0
71
8
72
5
73
1
7
Standard
0
MTEXT
5
4A
330
1C
100
AcDbEntity
67
0
8
\U+042D\U+041C \U+0422\U+0435\U+043A\U+0441\U+0442
62
256
6
ByLayer
370
-1
48
1.0
60
0
100
AcDbMText
10
17.5
20
137.9812
30
0.0
210
0.0
220
0.0
230
1.0
1
\U+0410\U+043F\U+043F\U+0430\U+0440\U+0430\U+0442\U+044B \P\U+043A\U+043E\U+043D\U+0442\U+0440\U+043E\U+043B\U+044F \U+0438 \P\U+0437\U+0430\U+0449\U+0438\U+0442\U+044B
40
2.5
41
0.0
44
1.0
11
1.0
21
0.0
31
0.0
71
8
72
5
73
1
7
Standard
0
MTEXT
5
4B
330
1C
100
AcDbEntity
67
0
8
\U+042D\U+041C \U+0422\U+0435\U+043A\U+0441\U+0442
62
256
6
ByLayer
370
-1
48
1.0
60
0
100
AcDbMText
10
5.0
20
42.5
30
0.0
210
0.0
220
0.0
230
1.0
1
\U+042D\U+043B\U+0435\U+043A\U+0442\U+0440\U+043E\U+043F\U+0440\U+0438\U+0435\U+043C\U+043D\U+0438\U+043A
40
2.5
41
0.0
44
1.0
11
0.0000000267948966
21
1.0
31
0.0
71
8
72
5
73
1
7
Standard
0
MTEXT
5
4C
330
1C
100
AcDbEntity
67
0
8
\U+042D\U+041C \U+0422\U+0435\U+043A\U+0441\U+0442
62
256
6
ByLayer
370
-1
48
1.0
60
0
100
AcDbMText
10
40.0
20
45.0
30
0.0
210
0.0
220
0.0
230
1.0
1
\U+0420\U+043D\U+043E\U+043C, \U+043A\U+0412\U+0442
40
2.5
41
0.0
44
1.0
11
1.0
21
0.0
31
0.0
71
8
72
5
73
1
7
Standard
0
MTEXT
5
4D
330
1C
100
AcDbEntity
67
0
8
\U+042D\U+041C \U+0422\U+0435\U+043A\U+0441\U+0442
62
256
6
ByLayer
370
-1
48
1.0
60
0
100
AcDbMText
10
40.0
20
77.5
30
0.0
210
0.0
220
0.0
230
1.0
1
\W0.8x\U+0423\U+0441\U+043B\U+043E\U+0432\U+043D\U+043E-\U+0433\U+0440\U+0430\U+0444\U+0438\U+0447\U+0435\U+0441\U+043A\U+043E\U+0435 \U+043E\U+0431\U+043E\U+0437\U+043D\U+0430\U+0447\U+0435\U+043D\U+0438\U+0435
40
2.5
41
0.0
44
1.0
11
1.0
21
0.0
31
0.0
71
8
72
5
73
1
7
Standard
0
MTEXT
5
4E
330
1C
100
AcDbEntity
67
0
8
\U+042D\U+041C \U+0422\U+0435\U+043A\U+0441\U+0442
62
256
6
ByLayer
370
-1
48
1.0
60
0
100
AcDbMText
10
40.0
20
60.0
30
0.0
210
0.0
220
0.0
230
1.0
3
\U+041E\U+0431\U+043E\U+0437\U+043D\U+0430\U+0447\U+0435\U+043D\U+0438\U+0435, \U+0442\U+0438\U+043F, \P\U+043D\U+0430\U+0438\U+043C\U+0435\U+043D\U+043E\U+0432\U+0430\U+043D\U+0438\U+0435 \U+043C\U+0435\U+0445\U+0430\U+043D\U+0438\U+0437\U+043C\U+04
1
30
40
2.5
41
0.0
44
1.0
11
1.0
21
0.0
31
0.0
71
8
72
5
73
1
7
Standard
0
LINE
5
5B
330
1C
100
AcDbEntity
67
0
8
\U+042D\U+041C \U+0422\U+0430\U+0431\U+043B\U+0438\U+0446\U+0430
62
256
6
ByLayer
370
-1
48
1.0
60
0
100
AcDbLine
10
80.1
20
234.37
30
0.0
11
80.1
21
203.0
31
0.0
39
0.0
210
0.0
220
0.0
230
1.0
0
LINE
5
5C
330
1C
100
AcDbEntity
67
0
8
\U+042D\U+041C \U+0422\U+0430\U+0431\U+043B\U+0438\U+0446\U+0430
62
256
6
ByLayer
370
-1
48
1.0
60
0
100
AcDbLine
10
75.1
20
206.78
30
0.0
11
80.1
21
203.0
31
0.0
39
0.0
210
0.0
220
0.0
230
1.0
0
LINE
5
5D
330
1C
100
AcDbEntity
67
0
8
\U+042D\U+041C \U+0422\U+0430\U+0431\U+043B\U+0438\U+0446\U+0430
62
256
6
ByLayer
370
-1
48
1.0
60
0
100
AcDbLine
10
73.1
20
249.29
30
0.0
11
73.1
21
206.78
31
0.0
39
0.0
210
0.0
220
0.0
230
1.0
0
LINE
5
5E
330
1C
100
AcDbEntity
67
0
8
\U+042D\U+041C \U+0422\U+0430\U+0431\U+043B\U+0438\U+0446\U+0430
62
256
6
ByLayer
370
-1
48
1.0
60
0
100
AcDbLine
10
78.02
20
236.77
30
0.0
11
77.15
21
237.27
31
0.0
39
0.0
210
0.0
220
0.0
230
1.0
0
LINE
5
5F
330
1C
100
AcDbEntity
67
0
8
\U+042D\U+041C \U+0422\U+0430\U+0431\U+043B\U+0438\U+0446\U+0430
62
256
6
ByLayer
370
-1
48
1.0
60
0
100
AcDbLine
10
80.8
20
233.66
30
0.0
11
79.39
21
235.07
31
0.0
39
0.0
210
0.0
220
0.0
230
1.0
0
LINE
5
60
330
1C
100
AcDbEntity
67
0
8
\U+042D\U+041C \U+0422\U+0430\U+0431\U+043B\U+0438\U+0446\U+0430
62
256
6
ByLayer
370
-1
48
1.0
60
0
100
AcDbLine
10
80.8
20
235.07
30
0.0
11
79.39
21
233.66
31
0.0
39
0.0
210
0.0
220
0.0
230
1.0
0
LINE
5
61
330
1C
100
AcDbEntity
67
0
8
\U+042D\U+041C \U+0422\U+0430\U+0431\U+043B\U+0438\U+0446\U+0430
62
256
6
ByLayer
370
-1
48
1.0
60
0
100
AcDbLine
10
78.15
20
239.0
30
0.0
11
79.02
21
238.5
31
0.0
39
0.0
210
0.0
220
0.0
230
1.0
0
LINE
5
62
330
1C
100
AcDbEntity
67
0
8
\U+042D\U+041C \U+0422\U+0430\U+0431\U+043B\U+0438\U+0446\U+0430
62
256
6
ByLayer
370
-1
48
1.0
60
0
100
AcDbLine
10
80.1
20
240.37
30
0.0
11
77.1
21
235.17
31
0.0
39
0.0
210
0.0
220
0.0
230
1.0
0
LINE
5
63
330
1C
100
AcDbEntity
67
0
8
\U+042D\U+041C \U+0422\U+0430\U+0431\U+043B\U+0438\U+0446\U+0430
62
256
6
ByLayer
370
-1
48
1.0
60
0
100
AcDbLine
10
77.15
20
237.27
30
0.0
11
78.15
21
239.0
31
0.0
39
0.0
210
0.0
220
0.0
230
1.0
0
LINE
5
64
330
1C
100
AcDbEntity
67
0
8
\U+042D\U+041C \U+0422\U+0430\U+0431\U+043B\U+0438\U+0446\U+0430
62
256
6
ByLayer
370
-1
48
1.0
60
0
100
AcDbLine
10
78.69
20
253.63
30
0.0
11
81.5
21
254.68
31
0.0
39
0.0
210
0.0
220
0.0
230
1.0
0
LINE
5
65
330
1C
100
AcDbEntity
67
0
8
\U+042D\U+041C \U+0422\U+0430\U+0431\U+043B\U+0438\U+0446\U+0430
62
256
6
ByLayer
370
-1
48
1.0
60
0
100
AcDbLine
10
78.69
20
252.34
30
0.0
11
81.5
21
253.39
31
0.0
39
0.0
210
0.0
220
0.0
230
1.0
0
LINE
5
66
330
1C
100
AcDbEntity
67
0
8
\U+042D\U+041C \U+0422\U+0430\U+0431\U+043B\U+0438\U+0446\U+0430
62
256
6
ByLayer
370
-1
48
1.0
60
0
100
AcDbLine
10
70.0
20
10.0
30
0.0
11
100.0
21
20.0
31
0.0
39
0.0
210
0.0
220
0.0
230
1.0
0
LINE
5
67
330
1C
100
AcDbEntity
67
0
8
\U+042D\U+041C \U+0422\U+0430\U+0431\U+043B\U+0438\U+0446\U+0430
62
256
6
ByLayer
370
-1
48
1.0
60
0
100
AcDbLine
10
70.0
20
258.04
30
0.0
11
79.35
21
258.04
31
0.0
39
0.0
210
0.0
220
0.0
230
1.0
0
LINE
5
68
330
1C
100
AcDbEntity
67
0
8
\U+042D\U+041C \U+0422\U+0430\U+0431\U+043B\U+0438\U+0446\U+0430
62
256
6
ByLayer
370
-1
48
1.0
60
0
100
AcDbLine
10
80.85
20
258.04
30
0.0
11
100.0
21
258.04
31
0.0
39
0.0
210
0.0
220
0.0
230
1.0
0
LINE
5
69
330
1C
100
AcDbEntity
67
0
8
\U+042D\U+041C \U+0422\U+0430\U+0431\U+043B\U+0438\U+0446\U+0430
62
256
6
ByLayer
370
-1
48
1.0
60
0
100
AcDbLine
10
78.69
20
251.05
30
0.0
11
81.5
21
252.1
31
0.0
39
0.0
210
0.0
220
0.0
230
1.0
0
LINE
5
6A
330
1C
100
AcDbEntity
67
0
8
\U+042D\U+041C \U+0422\U+0430\U+0431\U+043B\U+0438\U+0446\U+0430
62
256
6
ByLayer
370
-1
48
1.0
60
0
100
AcDbLine
10
80.1
20
257.29
30
0.0
11
80.1
21
240.37
31
0.0
39
0.0
210
0.0
220
0.0
230
1.0
0
LINE
5
6B
330
1C
100
AcDbEntity
67
0
8
\U+042D\U+041C \U+0422\U+0430\U+0431\U+043B\U+0438\U+0446\U+0430
62
256
6
ByLayer
370
-1
48
1.0
60
0
100
AcDbLine
10
75.1
20
247.29
30
0.0
11
75.1
21
206.78
31
0.0
39
0.0
210
0.0
220
0.0
230
1.0
0
LINE
5
6C
330
1C
100
AcDbEntity
67
0
8
\U+042D\U+041C \U+0422\U+0430\U+0431\U+043B\U+0438\U+0446\U+0430
62
256
6
ByLayer
370
-1
48
1.0
60
0
100
AcDbLine
10
70.0
20
70.0
30
0.0
11
70.0
21
0.0
31
0.0
39
0.0
210
0.0
220
0.0
230
1.0
0
LINE
5
6D
330
1C
100
AcDbEntity
67
0
8
\U+042D\U+041C \U+0422\U+0430\U+0431\U+043B\U+0438\U+0446\U+0430
62
256
6
ByLayer
370
-1
48
1.0
60
0
100
AcDbLine
10
80.1
20
203.0
30
0.0
11
80.1
21
74.72
31
0.0
39
0.0
210
0.0
220
0.0
230
1.0
0
LINE
5
6E
330
1C
100
AcDbEntity
67
0
8
\U+042D\U+041C \U+0422\U+0430\U+0431\U+043B\U+0438\U+0446\U+0430
62
256
6
ByLayer
370
-1
48
1.0
60
0
100
AcDbLine
10
75.85
20
248.04
30
0.0
11
100.0
21
248.04
31
0.0
39
0.0
210
0.0
220
0.0
230
1.0
0
LINE
5
6F
330
1C
100
AcDbEntity
67
0
8
\U+042D\U+041C \U+0422\U+0430\U+0431\U+043B\U+0438\U+0446\U+0430
62
256
6
ByLayer
370
-1
48
1.0
60
0
100
AcDbLine
10
70.0
20
250.04
30
0.0
11
72.35
21
250.04
31
0.0
39
0.0
210
0.0
220
0.0
230
1.0
0
LINE
5
70
330
1C
100
AcDbEntity
67
0
8
\U+042D\U+041C \U+0422\U+0430\U+0431\U+043B\U+0438\U+0446\U+0430
62
256
6
ByLayer
370
-1
48
1.0
60
0
100
AcDbLine
10
70.0
20
248.04
30
0.0
11
74.35
21
248.04
31
0.0
39
0.0
210
0.0
220
0.0
230
1.0
0
LINE
5
71
330
1C
100
AcDbEntity
67
0
8
\U+042D\U+041C \U+0422\U+0430\U+0431\U+043B\U+0438\U+0446\U+0430
62
256
6
ByLayer
370
-1
48
1.0
60
0
100
AcDbLine
10
73.85
20
250.04
30
0.0
11
100.0
21
250.04
31
0.0
39
0.0
210
0.0
220
0.0
230
1.0
0
LINE
5
72
330
1C
100
AcDbEntity
67
0
8
\U+042D\U+041C \U+0422\U+0430\U+0431\U+043B\U+0438\U+0446\U+0430
62
256
6
ByLayer
370
-1
48
1.0
60
0
100
AcDbLine
10
75.12
20
256.63
30
0.0
11
72.29
21
259.46
31
0.0
39
0.0
210
0.0
220
0.0
230
1.0
0
LINE
5
73
330
1C
100
AcDbEntity
67
0
8
\U+042D\U+041C \U+0422\U+0430\U+0431\U+043B\U+0438\U+0446\U+0430
62
256
6
ByLayer
370
-1
48
1.0
60
0
100
AcDbLine
10
70.0
20
50.0
30
0.0
11
100.0
21
50.0
31
0.0
39
0.0
210
0.0
220
0.0
230
1.0
0
LINE
5
74
330
1C
100
AcDbEntity
67
0
8
\U+042D\U+041C \U+0422\U+0430\U+0431\U+043B\U+0438\U+0446\U+0430
62
256
6
ByLayer
370
-1
48
1.0
60
0
100
AcDbLine
10
76.62
20
256.63
30
0.0
11
73.79
21
259.46
31
0.0
39
0.0
210
0.0
220
0.0
230
1.0
0
LINE
5
75
330
1C
100
AcDbEntity
67
0
8
\U+042D\U+041C \U+0422\U+0430\U+0431\U+043B\U+0438\U+0446\U+0430
62
256
6
ByLayer
370
-1
48
1.0
60
0
100
AcDbLine
10
70.0
20
70.0
30
0.0
11
100.0
21
70.0
31
0.0
39
0.0
210
0.0
220
0.0
230
1.0
0
LINE
5
76
330
1C
100
AcDbEntity
67
0
8
\U+042D\U+041C \U+0422\U+0430\U+0431\U+043B\U+0438\U+0446\U+0430
62
256
6
ByLayer
370
-1
48
1.0
60
0
100
AcDbLine
10
73.62
20
256.63
30
0.0
11
70.79
21
259.46
31
0.0
39
0.0
210
0.0
220
0.0
230
1.0
0
LINE
5
77
330
1C
100
AcDbEntity
67
0
8
\U+042D\U+041C \U+0422\U+0430\U+0431\U+043B\U+0438\U+0446\U+0430
62
256
6
ByLayer
370
-1
48
1.0
60
0
100
AcDbLine
10
70.0
20
40.0
30
0.0
11
100.0
21
40.0
31
0.0
39
0.0
210
0.0
220
0.0
230
1.0
0
LINE
5
78
330
1C
100
AcDbEntity
67
0
8
\U+042D\U+041C \U+0422\U+0430\U+0431\U+043B\U+0438\U+0446\U+0430
62
256
6
ByLayer
370
-1
48
1.0
60
0
100
AcDbLine
10
70.0
20
0.0
30
0.0
11
100.0
21
0.0
31
0.0
39
0.0
210
0.0
220
0.0
230
1.0
0
LINE
5
79
330
1C
100
AcDbEntity
67
0
8
\U+042D\U+041C \U+0422\U+0430\U+0431\U+043B\U+0438\U+0446\U+0430
62
256
6
ByLayer
370
-1
48
1.0
60
0
100
AcDbLine
10
70.0
20
10.0
30
0.0
11
100.0
21
10.0
31
0.0
39
0.0
210
0.0
220
0.0
230
1.0
0
LINE
5
7A
330
1C
100
AcDbEntity
67
0
8
\U+042D\U+041C \U+0422\U+0430\U+0431\U+043B\U+0438\U+0446\U+0430
62
256
6
ByLayer
370
-1
48
1.0
60
0
100
AcDbLine
10
70.0
20
30.0
30
0.0
11
100.0
21
30.0
31
0.0
39
0.0
210
0.0
220
0.0
230
1.0
0
LINE
5
7B
330
1C
100
AcDbEntity
67
0
8
\U+042D\U+041C \U+0422\U+0430\U+0431\U+043B\U+0438\U+0446\U+0430
62
256
6
ByLayer
370
-1
48
1.0
60
0
100
AcDbLine
10
70.0
20
20.0
30
0.0
11
100.0
21
20.0
31
0.0
39
0.0
210
0.0
220
0.0
230
1.0
0
LINE
5
7C
330
1C
100
AcDbEntity
67
0
8
\U+042D\U+041C \U+0422\U+0430\U+0431\U+043B\U+0438\U+0446\U+0430
62
256
6
ByLayer
370
-1
48
1.0
60
0
100
AcDbLine
10
73.1
20
206.78
30
0.0
11
80.1
21
203.0
31
0.0
39
0.0
210
0.0
220
0.0
230
1.0
0
LINE
5
7D
330
1C
100
AcDbEntity
67
0
8
\U+042D\U+041C \U+0422\U+0430\U+0431\U+043B\U+0438\U+0446\U+0430
62
256
6
ByLayer
370
-1
48
1.0
60
0
100
AcDbLine
10
100.0
20
70.0
30
0.0
11
100.0
21
0.0
31
0.0
39
0.0
210
0.0
220
0.0
230
1.0
0
CIRCLE
5
7E
330
1C
100
AcDbEntity
67
0
8
\U+042D\U+041C \U+0422\U+0430\U+0431\U+043B\U+0438\U+0446\U+0430
62
256
6
ByLayer
370
-1
48
1.0
60
0
100
AcDbCircle
10
75.1
20
248.04
30
0.0
40
0.75
39
0.0
210
0.0
220
0.0
230
1.0
0
CIRCLE
5
7F
330
1C
100
AcDbEntity
67
0
8
\U+042D\U+041C \U+0422\U+0430\U+0431\U+043B\U+0438\U+0446\U+0430
62
256
6
ByLayer
370
-1
48
1.0
60
0
100
AcDbCircle
10
73.1
20
250.04
30
0.0
40
0.75
39
0.0
210
0.0
220
0.0
230
1.0
0
CIRCLE
5
80
330
1C
100
AcDbEntity
67
0
8
\U+042D\U+041C \U+0422\U+0430\U+0431\U+043B\U+0438\U+0446\U+0430
62
256
6
ByLayer
370
-1
48
1.0
60
0
100
AcDbCircle
10
80.1
20
258.04
30
0.0
40
0.75
39
0.0
210
0.0
220
0.0
230
1.0
0
MTEXT
5
81
330
1C
100
AcDbEntity
67
0
8
\U+042D\U+041C \U+0422\U+0435\U+043A\U+0441\U+0442
62
256
6
ByLayer
370
-1
48
1.0
60
0
100
AcDbMText
10
85.65
20
43.68
30
0.0
210
0.0
220
0.0
230
1.0
1
34
40
2.5
41
0.0
44
1.0
11
1.0
21
0.0
31
0.0
71
8
72
5
73
1
7
Standard
0
MTEXT
5
82
330
1C
100
AcDbEntity
67
0
8
\U+042D\U+041C \U+0422\U+0435\U+043A\U+0441\U+0442
62
256
6
ByLayer
370
-1
48
1.0
60
0
100
AcDbMText
10
85.91
20
32.97
30
0.0
210
0.0
220
0.0
230
1.0
1
53,11
40
2.5
41
0.0
44
1.0
11
1.0
21
0.0
31
0.0
71
8
72
5
73
1
7
Standard
0
MTEXT
5
83
330
1C
100
AcDbEntity
67
0
8
\U+042D\U+041C \U+0422\U+0435\U+043A\U+0441\U+0442
62
256
6
ByLayer
370
-1
48
1.0
60
0
100
AcDbMText
10
86.09
20
230.51
30
0.0
210
0.0
220
0.0
230
1.0
1
C63
40
2.5
41
0.0
44
1.0
11
1.0
21
0.0
31
0.0
71
8
72
5
73
1
7
Standard
0
MTEXT
5
84
330
1C
100
AcDbEntity
67
0
8
\U+042D\U+041C \U+0422\U+0435\U+043A\U+0441\U+0442
62
256
6
ByLayer
370
-1
48
1.0
60
0
100
AcDbMText
10
85.93
20
233.74
30
0.0
210
0.0
220
0.0
230
1.0
1
160
40
2.5
41
0.0
44
1.0
11
1.0
21
0.0
31
0.0
71
8
72
5
73
1
7
Standard
0
MTEXT
5
85
330
1C
100
AcDbEntity
67
0
8
\U+042D\U+041C \U+0422\U+0435\U+043A\U+0441\U+0442
62
256
6
ByLayer
370
-1
48
1.0
60
0
100
AcDbMText
10
86.03
20
240.41
30
0.0
210
0.0
220
0.0
230
1.0
1
QS
40
2.5
41
0.0
44
1.0
11
1.0
21
0.0
31
0.0
71
8
72
5
73
1
7
Standard
0
MTEXT
5
86
330
1C
100
AcDbEntity
67
0
8
\U+042D\U+041C \U+0422\U+0435\U+043A\U+0441\U+0442
62
256
6
ByLayer
370
-1
48
1.0
60
0
100
AcDbMText
10
86.58
20
237.41
30
0.0
210
0.0
220
0.0
230
1.0
1
\U+0410\U+0412
40
2.5
41
0.0
44
1.0
11
1.0
21
0.0
31
0.0
71
8
72
5
73
1
7
Standard
0
MTEXT
5
87
330
1C
100
AcDbEntity
67
0
8
\U+042D\U+041C \U+0422\U+0435\U+043A\U+0441\U+0442
62
256
6
ByLayer
370
-1
48
1.0
60
0
100
AcDbMText
10
84.98
20
53.21
30
0.0
210
0.0
220
0.0
230
1.0
1
\U+041D\U+043E\U+0432\U+044B\U+0439 \U+0449\U+0438\U+0442 \U+0429\U+04201
40
2.5
41
0.0
44
1.0
11
1.0
21
0.0
31
0.0
71
8
72
5
73
1
7
Standard
0
LINE
5
8A
330
1C
100
AcDbEntity
67
0
8
\U+042D\U+041C \U+0422\U+0430\U+0431\U+043B\U+0438\U+0446\U+0430
62
256
6
ByLayer
370
-1
48
1.0
60
0
100
AcDbLine
10
110.8
20
241.07
30
0.0
11
109.39
21
239.66
31
0.0
39
0.0
210
0.0
220
0.0
230
1.0
0
LINE
5
8B
330
1C
100
AcDbEntity
67
0
8
\U+042D\U+041C \U+0422\U+0430\U+0431\U+043B\U+0438\U+0446\U+0430
62
256
6
ByLayer
370
-1
48
1.0
60
0
100
AcDbLine
10
105.1
20
247.29
30
0.0
11
105.1
21
206.78
31
0.0
39
0.0
210
0.0
220
0.0
230
1.0
0
LINE
5
8C
330
1C
100
AcDbEntity
67
0
8
\U+042D\U+041C \U+0422\U+0430\U+0431\U+043B\U+0438\U+0446\U+0430
62
256
6
ByLayer
370
-1
48
1.0
60
0
100
AcDbLine
10
107.15
20
237.47
30
0.0
11
108.15
21
235.74
31
0.0
39
0.0
210
0.0
220
0.0
230
1.0
0
LINE
5
8D
330
1C
100
AcDbEntity
67
0
8
\U+042D\U+041C \U+0422\U+0430\U+0431\U+043B\U+0438\U+0446\U+0430
62
256
6
ByLayer
370
-1
48
1.0
60
0
100
AcDbLine
10
108.15
20
235.74
30
0.0
11
109.02
21
236.24
31
0.0
39
0.0
210
0.0
220
0.0
230
1.0
0
LINE
5
8E
330
1C
100
AcDbEntity
67
0
8
\U+042D\U+041C \U+0422\U+0430\U+0431\U+043B\U+0438\U+0446\U+0430
62
256
6
ByLayer
370
-1
48
1.0
60
0
100
AcDbLine
10
110.8
20
239.66
30
0.0
11
109.39
21
241.07
31
0.0
39
0.0
210
0.0
220
0.0
230
1.0
0
LINE
5
8F
330
1C
100
AcDbEntity
67
0
8
\U+042D\U+041C \U+0422\U+0430\U+0431\U+043B\U+0438\U+0446\U+0430
62
256
6
ByLayer
370
-1
48
1.0
60
0
100
AcDbLine
10
110.1
20
234.37
30
0.0
11
110.1
21
203.0
31
0.0
39
0.0
210
0.0
220
0.0
230
1.0
0
LINE
5
90
330
1C
100
AcDbEntity
67
0
8
\U+042D\U+041C \U+0422\U+0430\U+0431\U+043B\U+0438\U+0446\U+0430
62
256
6
ByLayer
370
-1
48
1.0
60
0
100
AcDbLine
10
130.0
20
70.0
30
0.0
11
130.0
21
0.0
31
0.0
39
0.0
210
0.0
220
0.0
230
1.0
0
LINE
5
91
330
1C
100
AcDbEntity
67
0
8
\U+042D\U+041C \U+0422\U+0430\U+0431\U+043B\U+0438\U+0446\U+0430
62
256
6
ByLayer
370
-1
48
1.0
60
0
100
AcDbLine
10
105.1
20
206.78
30
0.0
11
110.1
21
203.0
31
0.0
39
0.0
210
0.0
220
0.0
230
1.0
0
LINE
5
92
330
1C
100
AcDbEntity
67
0
8
\U+042D\U+041C \U+0422\U+0430\U+0431\U+043B\U+0438\U+0446\U+0430
62
256
6
ByLayer
370
-1
48
1.0
60
0
100
AcDbLine
10
103.1
20
249.29
30
0.0
11
103.1
21
206.78
31
0.0
39
0.0
210
0.0
220
0.0
230
1.0
0
LINE
5
93
330
1C
100
AcDbEntity
67
0
8
\U+042D\U+041C \U+0422\U+0430\U+0431\U+043B\U+0438\U+0446\U+0430
62
256
6
ByLayer
370
-1
48
1.0
60
0
100
AcDbLine
10
108.02
20
237.97
30
0.0
11
107.15
21
237.47
31
0.0
39
0.0
210
0.0
220
0.0
230
1.0
0
LINE
5
94
330
1C
100
AcDbEntity
67
0
8
\U+042D\U+041C \U+0422\U+0430\U+0431\U+043B\U+0438\U+0446\U+0430
62
256
6
ByLayer
370
-1
48
1.0
60
0
100
AcDbLine
10
105.85
20
248.04
30
0.0
11
130.0
21
248.04
31
0.0
39
0.0
210
0.0
220
0.0
230
1.0
0
LINE
5
95
330
1C
100
AcDbEntity
67
0
8
\U+042D\U+041C \U+0422\U+0430\U+0431\U+043B\U+0438\U+0446\U+0430
62
256
6
ByLayer
370
-1
48
1.0
60
0
100
AcDbLine
10
100.0
20
250.04
30
0.0
11
102.35
21
250.04
31
0.0
39
0.0
210
0.0
220
0.0
230
1.0
0
LINE
5
96
330
1C
100
AcDbEntity
67
0
8
\U+042D\U+041C \U+0422\U+0430\U+0431\U+043B\U+0438\U+0446\U+0430
62
256
6
ByLayer
370
-1
48
1.0
60
0
100
AcDbLine
10
103.85
20
250.04
30
0.0
11
130.0
21
250.04
31
0.0
39
0.0
210
0.0
220
0.0
230
1.0
0
LINE
5
97
330
1C
100
AcDbEntity
67
0
8
\U+042D\U+041C \U+0422\U+0430\U+0431\U+043B\U+0438\U+0446\U+0430
62
256
6
ByLayer
370
-1
48
1.0
60
0
100
AcDbLine
10
100.0
20
258.04
30
0.0
11
109.35
21
258.04
31
0.0
39
0.0
210
0.0
220
0.0
230
1.0
0
LINE
5
98
330
1C
100
AcDbEntity
67
0
8
\U+042D\U+041C \U+0422\U+0430\U+0431\U+043B\U+0438\U+0446\U+0430
62
256
6
ByLayer
370
-1
48
1.0
60
0
100
AcDbLine
10
110.85
20
258.04
30
0.0
11
130.0
21
258.04
31
0.0
39
0.0
210
0.0
220
0.0
230
1.0
0
LINE
5
99
330
1C
100
AcDbEntity
67
0
8
\U+042D\U+041C \U+0422\U+0430\U+0431\U+043B\U+0438\U+0446\U+0430
62
256
6
ByLayer
370
-1
48
1.0
60
0
100
AcDbLine
10
100.0
20
248.04
30
0.0
11
104.35
21
248.04
31
0.0
39
0.0
210
0.0
220
0.0
230
1.0
0
LINE
5
9A
330
1C
100
AcDbEntity
67
0
8
\U+042D\U+041C \U+0422\U+0430\U+0431\U+043B\U+0438\U+0446\U+0430
62
256
6
ByLayer
370
-1
48
1.0
60
0
100
AcDbLine
10
110.1
20
203.0
30
0.0
11
110.1
21
84.96
31
0.0
39
0.0
210
0.0
220
0.0
230
1.0
0
LINE
5
9B
330
1C
100
AcDbEntity
67
0
8
\U+042D\U+041C \U+0422\U+0430\U+0431\U+043B\U+0438\U+0446\U+0430
62
256
6
ByLayer
370
-1
48
1.0
60
0
100
AcDbLine
10
110.1
20
257.29
30
0.0
11
110.1
21
240.37
31
0.0
39
0.0
210
0.0
220
0.0
230
1.0
0
LINE
5
9C
330
1C
100
AcDbEntity
67
0
8
\U+042D\U+041C \U+0422\U+0430\U+0431\U+043B\U+0438\U+0446\U+0430
62
256
6
ByLayer
370
-1
48
1.0
60
0
100
AcDbLine
10
110.1
20
234.37
30
0.0
11
107.1
21
239.56
31
0.0
39
0.0
210
0.0
220
0.0
230
1.0
0
LINE
5
9D
330
1C
100
AcDbEntity
67
0
8
\U+042D\U+041C \U+0422\U+0430\U+0431\U+043B\U+0438\U+0446\U+0430
62
256
6
ByLayer
370
-1
48
1.0
60
0
100
AcDbLine
10
100.0
20
70.0
30
0.0
11
100.0
21
0.0
31
0.0
39
0.0
210
0.0
220
0.0
230
1.0
0
LINE
5
9E
330
1C
100
AcDbEntity
67
0
8
\U+042D\U+041C \U+0422\U+0430\U+0431\U+043B\U+0438\U+0446\U+0430
62
256
6
ByLayer
370
-1
48
1.0
60
0
100
AcDbLine
10
130.0
20
70.0
30
0.0
11
130.0
21
0.0
31
0.0
39
0.0
210
0.0
220
0.0
230
1.0
0
LINE
5
9F
330
1C
100
AcDbEntity
67
0
8
\U+042D\U+041C \U+0422\U+0430\U+0431\U+043B\U+0438\U+0446\U+0430
62
256
6
ByLayer
370
-1
48
1.0
60
0
100
AcDbLine
10
100.0
20
10.0
30
0.0
11
130.0
21
20.0
31
0.0
39
0.0
210
0.0
220
0.0
230
1.0
0
LINE
5
A0
330
1C
100
AcDbEntity
67
0
8
\U+042D\U+041C \U+0422\U+0430\U+0431\U+043B\U+0438\U+0446\U+0430
62
256
6
ByLayer
370
-1
48
1.0
60
0
100
AcDbLine
10
100.0
20
30.0
30
0.0
11
130.0
21
30.0
31
0.0
39
0.0
210
0.0
220
0.0
230
1.0
0
LINE
5
A1
330
1C
100
AcDbEntity
67
0
8
\U+042D\U+041C \U+0422\U+0430\U+0431\U+043B\U+0438\U+0446\U+0430
62
256
6
ByLayer
370
-1
48
1.0
60
0
100
AcDbLine
10
100.0
20
20.0
30
0.0
11
130.0
21
20.0
31
0.0
39
0.0
210
0.0
220
0.0
230
1.0
0
LINE
5
A2
330
1C
100
AcDbEntity
67
0
8
\U+042D\U+041C \U+0422\U+0430\U+0431\U+043B\U+0438\U+0446\U+0430
62
256
6
ByLayer
370
-1
48
1.0
60
0
100
AcDbLine
10
100.0
20
10.0
30
0.0
11
130.0
21
10.0
31
0.0
39
0.0
210
0.0
220
0.0
230
1.0
0
LINE
5
A3
330
1C
100
AcDbEntity
67
0
8
\U+042D\U+041C \U+0422\U+0430\U+0431\U+043B\U+0438\U+0446\U+0430
62
256
6
ByLayer
370
-1
48
1.0
60
0
100
AcDbLine
10
100.0
20
70.0
30
0.0
11
130.0
21
70.0
31
0.0
39
0.0
210
0.0
220
0.0
230
1.0
0
LINE
5
A4
330
1C
100
AcDbEntity
67
0
8
\U+042D\U+041C \U+0422\U+0430\U+0431\U+043B\U+0438\U+0446\U+0430
62
256
6
ByLayer
370
-1
48
1.0
60
0
100
AcDbLine
10
100.0
20
50.0
30
0.0
11
130.0
21
50.0
31
0.0
39
0.0
210
0.0
220
0.0
230
1.0
0
LINE
5
A5
330
1C
100
AcDbEntity
67
0
8
\U+042D\U+041C \U+0422\U+0430\U+0431\U+043B\U+0438\U+0446\U+0430
62
256
6
ByLayer
370
-1
48
1.0
60
0
100
AcDbLine
10
100.0
20
40.0
30
0.0
11
130.0
21
40.0
31
0.0
39
0.0
210
0.0
220
0.0
230
1.0
0
LINE
5
A6
330
1C
100
AcDbEntity
67
0
8
\U+042D\U+041C \U+0422\U+0430\U+0431\U+043B\U+0438\U+0446\U+0430
62
256
6
ByLayer
370
-1
48
1.0
60
0
100
AcDbLine
10
108.69
20
251.05
30
0.0
11
111.5
21
252.1
31
0.0
39
0.0
210
0.0
220
0.0
230
1.0
0
LINE
5
A7
330
1C
100
AcDbEntity
67
0
8
\U+042D\U+041C \U+0422\U+0430\U+0431\U+043B\U+0438\U+0446\U+0430
62
256
6
ByLayer
370
-1
48
1.0
60
0
100
AcDbLine
10
100.0
20
0.0
30
0.0
11
130.0
21
0.0
31
0.0
39
0.0
210
0.0
220
0.0
230
1.0
0
LINE
5
A8
330
1C
100
AcDbEntity
67
0
8
\U+042D\U+041C \U+0422\U+0430\U+0431\U+043B\U+0438\U+0446\U+0430
62
256
6
ByLayer
370
-1
48
1.0
60
0
100
AcDbLine
10
108.69
20
253.63
30
0.0
11
111.5
21
254.68
31
0.0
39
0.0
210
0.0
220
0.0
230
1.0
0
LINE
5
A9
330
1C
100
AcDbEntity
67
0
8
\U+042D\U+041C \U+0422\U+0430\U+0431\U+043B\U+0438\U+0446\U+0430
62
256
6
ByLayer
370
-1
48
1.0
60
0
100
AcDbLine
10
108.69
20
252.34
30
0.0
11
111.5
21
253.39
31
0.0
39
0.0
210
0.0
220
0.0
230
1.0
0
LINE
5
AA
330
1C
100
AcDbEntity
67
0
8
\U+042D\U+041C \U+0422\U+0430\U+0431\U+043B\U+0438\U+0446\U+0430
62
256
6
ByLayer
370
-1
48
1.0
60
0
100
AcDbLine
10
103.1
20
206.78
30
0.0
11
110.1
21
203.0
31
0.0
39
0.0
210
0.0
220
0.0
230
1.0
0
CIRCLE
5
AB
330
1C
100
AcDbEntity
67
0
8
\U+042D\U+041C \U+0422\U+0430\U+0431\U+043B\U+0438\U+0446\U+0430
62
256
6
ByLayer
370
-1
48
1.0
60
0
100
AcDbCircle
10
110.1
20
258.04
30
0.0
40
0.75
39
0.0
210
0.0
220
0.0
230
1.0
0
CIRCLE
5
AC
330
1C
100
AcDbEntity
67
0
8
\U+042D\U+041C \U+0422\U+0430\U+0431\U+043B\U+0438\U+0446\U+0430
62
256
6
ByLayer
370
-1
48
1.0
60
0
100
AcDbCircle
10
105.1
20
248.04
30
0.0
40
0.75
39
0.0
210
0.0
220
0.0
230
1.0
0
CIRCLE
5
AD
330
1C
100
AcDbEntity
67
0
8
\U+042D\U+041C \U+0422\U+0430\U+0431\U+043B\U+0438\U+0446\U+0430
62
256
6
ByLayer
370
-1
48
1.0
60
0
100
AcDbCircle
10
103.1
20
250.04
30
0.0
40
0.75
39
0.0
210
0.0
220
0.0
230
1.0
0
CIRCLE
5
AE
330
1C
100
AcDbEntity
67
0
8
\U+042D\U+041C \U+0422\U+0430\U+0431\U+043B\U+0438\U+0446\U+0430
62
256
6
ByLayer
370
-1
48
1.0
60
0
100
AcDbCircle
10
110.1
20
80.96
30
0.0
40
4.0
39
0.0
210
0.0
220
0.0
230
1.0
0
MTEXT
5
AF
330
1C
100
AcDbEntity
67
0
8
\U+042D\U+041C \U+0422\U+0435\U+043A\U+0441\U+0442
62
256
6
ByLayer
370
-1
48
1.0
60
0
100
AcDbMText
10
115.91
20
32.97
30
0.0
210
0.0
220
0.0
230
1.0
1
15,52/170,72
40
2.5
41
0.0
44
1.0
11
1.0
21
0.0
31
0.0
71
8
72
5
73
1
7
Standard
0
MTEXT
5
B0
330
1C
100
AcDbEntity
67
0
8
\U+042D\U+041C \U+0422\U+0435\U+043A\U+0441\U+0442
62
256
6
ByLayer
370
-1
48
1.0
60
0
100
AcDbMText
10
115.91
20
22.97
30
0.0
210
0.0
220
0.0
230
1.0
1

40
2.5
41
0.0
44
1.0
11
1.0
21
0.0
31
0.0
71
8
72
5
73
1
7
Standard
0
MTEXT
5
B1
330
1C
100
AcDbEntity
67
0
8
\U+042D\U+041C \U+0422\U+0435\U+043A\U+0441\U+0442
62
256
6
ByLayer
370
-1
48
1.0
60
0
100
AcDbMText
10
108.26
20
14.91
30
0.0
210
0.0
220
0.0
230
1.0
1
0,01
40
2.5
41
0.0
44
1.0
11
1.0
21
0.0
31
0.0
71
8
72
5
73
1
7
Standard
0
MTEXT
5
B2
330
1C
100
AcDbEntity
67
0
8
\U+042D\U+041C \U+0422\U+0435\U+043A\U+0441\U+0442
62
256
6
ByLayer
370
-1
48
1.0
60
0
100
AcDbMText
10
116.09
20
230.51
30
0.0
210
0.0
220
0.0
230
1.0
1
C16
40
2.5
41
0.0
44
1.0
11
1.0
21
0.0
31
0.0
71
8
72
5
73
1
7
Standard
0
MTEXT
5
B3
330
1C
100
AcDbEntity
67
0
8
\U+042D\U+041C \U+0422\U+0435\U+043A\U+0441\U+0442
62
256
6
ByLayer
370
-1
48
1.0
60
0
100
AcDbMText
10
114.98
20
53.21
30
0.0
210
0.0
220
0.0
230
1.0
1
030-\U+0420-008A \P\U+041D\U+0430\U+0441\U+043E\U+0441 Xylem, LOWARA
40
2.5
41
0.0
44
1.0
11
1.0
21
0.0
31
0.0
71
8
72
5
73
1
7
Standard
0
MTEXT
5
B4
330
1C
100
AcDbEntity
67
0
8
\U+042D\U+041C \U+0422\U+0435\U+043A\U+0441\U+0442
62
256
6
ByLayer
370
-1
48
1.0
60
0
100
AcDbMText
10
115.65
20
43.68
30
0.0
210
0.0
220
0.0
230
1.0
1
10
40
2.5
41
0.0
44
1.0
11
1.0
21
0.0
31
0.0
71
8
72
5
73
1
7
Standard
0
MTEXT
5
B5
330
1C
100
AcDbEntity
67
0
8
\U+042D\U+041C \U+0422\U+0435\U+043A\U+0441\U+0442
62
256
6
ByLayer
370
-1
48
1.0
60
0
100
AcDbMText
10
109.93
20
78.22
30
0.0
210
0.0
220
0.0
230
1.0
1
~\PM
40
2.5
41
0.0
44
1.0
11
1.0
21
0.0
31
0.0
71
8
72
5
73
1
7
Standard
0
MTEXT
5
B6
330
1C
100
AcDbEntity
67
0
8
\U+042D\U+041C \U+0422\U+0435\U+043A\U+0441\U+0442
62
256
6
ByLayer
370
-1
48
1.0
60
0
100
AcDbMText
10
108.23
20
176.7
30
0.0
210
0.0
220
0.0
230
1.0
1
\U+0412\U+0412\U+0413\U+043D\U+0433- 5x2,5
40
2.5
41
0.0
44
1.0
11
0.0000000267948966
21
1.0
31
0.0
71
8
72
5
73
1
7
Standard
0
MTEXT
5
B7
330
1C
100
AcDbEntity
67
0
8
\U+042D\U+041C \U+0422\U+0435\U+043A\U+0441\U+0442
62
256
6
ByLayer
370
-1
48
1.0
60
0
100
AcDbMText
10
116.1
20
176.7
30
0.0
210
0.0
220
0.0
230
1.0
1
030-\U+0420-008A-H1, L=5\U+043C
40
2.5
41
0.0
44
1.0
11
0.0000000267948966
21
1.0
31
0.0
71
8
72
5
73
1
7
Standard
0
MTEXT
5
B8
330
1C
100
AcDbEntity
67
0
8
\U+042D\U+041C \U+0422\U+0435\U+043A\U+0441\U+0442
62
256
6
ByLayer
370
-1
48
1.0
60
0
100
AcDbMText
10
121.88
20
11.12
30
0.0
210
0.0
220
0.0
230
1.0
1
0,01
40
2.5
41
0.0
44
1.0
11
1.0
21
0.0
31
0.0
71
8
72
5
73
1
7
Standard
0
MTEXT
5
B9
330
1C
100
AcDbEntity
67
0
8
\U+042D\U+041C \U+0422\U+0435\U+043A\U+0441\U+0442
62
256
6
ByLayer
370
-1
48
1.0
60
0
100
AcDbMText
10
115.91
20
1.42
30
0.0
210
0.0
220
0.0
230
1.0
1
102
40
2.5
41
0.0
44
1.0
11
1.0
21
0.0
31
0.0
71
8
72
5
73
1
7
Standard
0
MTEXT
5
BA
330
1C
100
AcDbEntity
67
0
8
\U+042D\U+041C \U+0422\U+0435\U+043A\U+0441\U+0442
62
256
6
ByLayer
370
-1
48
1.0
60
0
100
AcDbMText
10
115.93
20
233.74
30
0.0
210
0.0
220
0.0
230
1.0
1
\L160
40
2.5
41
0.0
44
1.0
11
1.0
21
0.0
31
0.0
71
8
72
5
73
1
7
Standard
0
MTEXT
5
BB
330
1C
100
AcDbEntity
67
0
8
\U+042D\U+041C \U+0422\U+0435\U+043A\U+0441\U+0442
62
256
6
ByLayer
370
-1
48
1.0
60
0
100
AcDbMText
10
116.03
20
240.41
30
0.0
210
0.0
220
0.0
230
1.0
1
QF1
40
2.5
41
0.0
44
1.0
11
1.0
21
0.0
31
0.0
71
8
72
5
73
1
7
Standard
0
MTEXT
5
BC
330
1C
100
AcDbEntity
67
0
8
\U+042D\U+041C \U+0422\U+0435\U+043A\U+0441\U+0442
62
256
6
ByLayer
370
-1
48
1.0
60
0
100
AcDbMText
10
116.58
20
237.41
30
0.0
210
0.0
220
0.0
230
1.0
1
\U+0410\U+0412
40
2.5
41
0.0
44
1.0
11
1.0
21
0.0
31
0.0
71
8
72
5
73
1
7
Standard
0
LINE
5
BF
330
1C
100
AcDbEntity
67
0
8
\U+042D\U+041C \U+0422\U+0430\U+0431\U+043B\U+0438\U+0446\U+0430
62
256
6
ByLayer
370
-1
48
1.0
60
0
100
AcDbLine
10
140.8
20
241.07
30
0.0
11
139.39
21
239.66
31
0.0
39
0.0
210
0.0
220
0.0
230
1.0
0
LINE
5
C0
330
1C
100
AcDbEntity
67
0
8
\U+042D\U+041C \U+0422\U+0430\U+0431\U+043B\U+0438\U+0446\U+0430
62
256
6
ByLayer
370
-1
48
1.0
60
0
100
AcDbLine
10
135.1
20
247.29
30
0.0
11
135.1
21
206.78
31
0.0
39
0.0
210
0.0
220
0.0
230
1.0
0
LINE
5
C1
330
1C
100
AcDbEntity
67
0
8
\U+042D\U+041C \U+0422\U+0430\U+0431\U+043B\U+0438\U+0446\U+0430
62
256
6
ByLayer
370
-1
48
1.0
60
0
100
AcDbLine
10
137.15
20
237.47
30
0.0
11
138.15
21
235.74
31
0.0
39
0.0
210
0.0
220
0.0
230
1.0
0
LINE
5
C2
330
1C
100
AcDbEntity
67
0
8
\U+042D\U+041C \U+0422\U+0430\U+0431\U+043B\U+0438\U+0446\U+0430
62
256
6
ByLayer
370
-1
48
1.0
60
0
100
AcDbLine
10
138.15
20
235.74
30
0.0
11
139.02
21
236.24
31
0.0
39
0.0
210
0.0
220
0.0
230
1.0
0
LINE
5
C3
330
1C
100
AcDbEntity
67
0
8
\U+042D\U+041C \U+0422\U+0430\U+0431\U+043B\U+0438\U+0446\U+0430
62
256
6
ByLayer
370
-1
48
1.0
60
0
100
AcDbLine
10
140.8
20
239.66
30
0.0
11
139.39
21
241.07
31
0.0
39
0.0
210
0.0
220
0.0
230
1.0
0
LINE
5
C4
330
1C
100
AcDbEntity
67
0
8
\U+042D\U+041C \U+0422\U+0430\U+0431\U+043B\U+0438\U+0446\U+0430
62
256
6
ByLayer
370
-1
48
1.0
60
0
100
AcDbLine
10
140.1
20
234.37
30
0.0
11
140.1
21
203.0
31
0.0
39
0.0
210
0.0
220
0.0
230
1.0
0
LINE
5
C5
330
1C
100
AcDbEntity
67
0
8
\U+042D\U+041C \U+0422\U+0430\U+0431\U+043B\U+0438\U+0446\U+0430
62
256
6
ByLayer
370
-1
48
1.0
60
0
100
AcDbLine
10
160.0
20
70.0
30
0.0
11
160.0
21
0.0
31
0.0
39
0.0
210
0.0
220
0.0
230
1.0
0
LINE
5
C6
330
1C
100
AcDbEntity
67
0
8
\U+042D\U+041C \U+0422\U+0430\U+0431\U+043B\U+0438\U+0446\U+0430
62
256
6
ByLayer
370
-1
48
1.0
60
0
100
AcDbLine
10
135.1
20
206.78
30
0.0
11
140.1
21
203.0
31
0.0
39
0.0
210
0.0
220
0.0
230
1.0
0
LINE
5
C7
330
1C
100
AcDbEntity
67
0
8
\U+042D\U+041C \U+0422\U+0430\U+0431\U+043B\U+0438\U+0446\U+0430
62
256
6
ByLayer
370
-1
48
1.0
60
0
100
AcDbLine
10
133.1
20
249.29
30
0.0
11
133.1
21
206.78
31
0.0
39
0.0
210
0.0
220
0.0
230
1.0
0
LINE
5
C8
330
1C
100
AcDbEntity
67
0
8
\U+042D\U+041C \U+0422\U+0430\U+0431\U+043B\U+0438\U+0446\U+0430
62
256
6
ByLayer
370
-1
48
1.0
60
0
100
AcDbLine
10
138.02
20
237.97
30
0.0
11
137.15
21
237.47
31
0.0
39
0.0
210
0.0
220
0.0
230
1.0
0
LINE
5
C9
330
1C
100
AcDbEntity
67
0
8
\U+042D\U+041C \U+0422\U+0430\U+0431\U+043B\U+0438\U+0446\U+0430
62
256
6
ByLayer
370
-1
48
1.0
60
0
100
AcDbLine
10
135.85
20
248.04
30
0.0
11
160.0
21
248.04
31
0.0
39
0.0
210
0.0
220
0.0
230
1.0
0
LINE
5
CA
330
1C
100
AcDbEntity
67
0
8
\U+042D\U+041C \U+0422\U+0430\U+0431\U+043B\U+0438\U+0446\U+0430
62
256
6
ByLayer
370
-1
48
1.0
60
0
100
AcDbLine
10
130.0
20
250.04
30
0.0
11
132.35
21
250.04
31
0.0
39
0.0
210
0.0
220
0.0
230
1.0
0
LINE
5
CB
330
1C
100
AcDbEntity
67
0
8
\U+042D\U+041C \U+0422\U+0430\U+0431\U+043B\U+0438\U+0446\U+0430
62
256
6
ByLayer
370
-1
48
1.0
60
0
100
AcDbLine
10
133.85
20
250.04
30
0.0
11
160.0
21
250.04
31
0.0
39
0.0
210
0.0
220
0.0
230
1.0
0
LINE
5
CC
330
1C
100
AcDbEntity
67
0
8
\U+042D\U+041C \U+0422\U+0430\U+0431\U+043B\U+0438\U+0446\U+0430
62
256
6
ByLayer
370
-1
48
1.0
60
0
100
AcDbLine
10
130.0
20
258.04
30
0.0
11
139.35
21
258.04
31
0.0
39
0.0
210
0.0
220
0.0
230
1.0
0
LINE
5
CD
330
1C
100
AcDbEntity
67
0
8
\U+042D\U+041C \U+0422\U+0430\U+0431\U+043B\U+0438\U+0446\U+0430
62
256
6
ByLayer
370
-1
48
1.0
60
0
100
AcDbLine
10
140.85
20
258.04
30
0.0
11
160.0
21
258.04
31
0.0
39
0.0
210
0.0
220
0.0
230
1.0
0
LINE
5
CE
330
1C
100
AcDbEntity
67
0
8
\U+042D\U+041C \U+0422\U+0430\U+0431\U+043B\U+0438\U+0446\U+0430
62
256
6
ByLayer
370
-1
48
1.0
60
0
100
AcDbLine
10
130.0
20
248.04
30
0.0
11
134.35
21
248.04
31
0.0
39
0.0
210
0.0
220
0.0
230
1.0
0
LINE
5
CF
330
1C
100
AcDbEntity
67
0
8
\U+042D\U+041C \U+0422\U+0430\U+0431\U+043B\U+0438\U+0446\U+0430
62
256
6
ByLayer
370
-1
48
1.0
60
0
100
AcDbLine
10
140.1
20
203.0
30
0.0
11
140.1
21
84.96
31
0.0
39
0.0
210
0.0
220
0.0
230
1.0
0
LINE
5
D0
330
1C
100
AcDbEntity
67
0
8
\U+042D\U+041C \U+0422\U+0430\U+0431\U+043B\U+0438\U+0446\U+0430
62
256
6
ByLayer
370
-1
48
1.0
60
0
100
AcDbLine
10
140.1
20
257.29
30
0.0
11
140.1
21
240.37
31
0.0
39
0.0
210
0.0
220
0.0
230
1.0
0
LINE
5
D1
330
1C
100
AcDbEntity
67
0
8
\U+042D\U+041C \U+0422\U+0430\U+0431\U+043B\U+0438\U+0446\U+0430
62
256
6
ByLayer
370
-1
48
1.0
60
0
100
AcDbLine
10
140.1
20
234.37
30
0.0
11
137.1
21
239.56
31
0.0
39
0.0
210
0.0
220
0.0
230
1.0
0
LINE
5
D2
330
1C
100
AcDbEntity
67
0
8
\U+042D\U+041C \U+0422\U+0430\U+0431\U+043B\U+0438\U+0446\U+0430
62
256
6
ByLayer
370
-1
48
1.0
60
0
100
AcDbLine
10
130.0
20
70.0
30
0.0
11
130.0
21
0.0
31
0.0
39
0.0
210
0.0
220
0.0
230
1.0
0
LINE
5
D3
330
1C
100
AcDbEntity
67
0
8
\U+042D\U+041C \U+0422\U+0430\U+0431\U+043B\U+0438\U+0446\U+0430
62
256
6
ByLayer
370
-1
48
1.0
60
0
100
AcDbLine
10
160.0
20
70.0
30
0.0
11
160.0
21
0.0
31
0.0
39
0.0
210
0.0
220
0.0
230
1.0
0
LINE
5
D4
330
1C
100
AcDbEntity
67
0
8
\U+042D\U+041C \U+0422\U+0430\U+0431\U+043B\U+0438\U+0446\U+0430
62
256
6
ByLayer
370
-1
48
1.0
60
0
100
AcDbLine
10
130.0
20
10.0
30
0.0
11
160.0
21
20.0
31
0.0
39
0.0
210
0.0
220
0.0
230
1.0
0
LINE
5
D5
330
1C
100
AcDbEntity
67
0
8
\U+042D\U+041C \U+0422\U+0430\U+0431\U+043B\U+0438\U+0446\U+0430
62
256
6
ByLayer
370
-1
48
1.0
60
0
100
AcDbLine
10
130.0
20
30.0
30
0.0
11
160.0
21
30.0
31
0.0
39
0.0
210
0.0
220
0.0
230
1.0
0
LINE
5
D6
330
1C
100
AcDbEntity
67
0
8
\U+042D\U+041C \U+0422\U+0430\U+0431\U+043B\U+0438\U+0446\U+0430
62
256
6
ByLayer
370
-1
48
1.0
60
0
100
AcDbLine
10
130.0
20
20.0
30
0.0
11
160.0
21
20.0
31
0.0
39
0.0
210
0.0
220
0.0
230
1.0
0
LINE
5
D7
330
1C
100
AcDbEntity
67
0
8
\U+042D\U+041C \U+0422\U+0430\U+0431\U+043B\U+0438\U+0446\U+0430
62
256
6
ByLayer
370
-1
48
1.0
60
0
100
AcDbLine
10
130.0
20
10.0
30
0.0
11
160.0
21
10.0
31
0.0
39
0.0
210
0.0
220
0.0
230
1.0
0
LINE
5
D8
330
1C
100
AcDbEntity
67
0
8
\U+042D\U+041C \U+0422\U+0430\U+0431\U+043B\U+0438\U+0446\U+0430
62
256
6
ByLayer
370
-1
48
1.0
60
0
100
AcDbLine
10
130.0
20
70.0
30
0.0
11
160.0
21
70.0
31
0.0
39
0.0
210
0.0
220
0.0
230
1.0
0
LINE
5
D9
330
1C
100
AcDbEntity
67
0
8
\U+042D\U+041C \U+0422\U+0430\U+0431\U+043B\U+0438\U+0446\U+0430
62
256
6
ByLayer
370
-1
48
1.0
60
0
100
AcDbLine
10
130.0
20
50.0
30
0.0
11
160.0
21
50.0
31
0.0
39
0.0
210
0.0
220
0.0
230
1.0
0
LINE
5
DA
330
1C
100
AcDbEntity
67
0
8
\U+042D\U+041C \U+0422\U+0430\U+0431\U+043B\U+0438\U+0446\U+0430
62
256
6
ByLayer
370
-1
48
1.0
60
0
100
AcDbLine
10
130.0
20
40.0
30
0.0
11
160.0
21
40.0
31
0.0
39
0.0
210
0.0
220
0.0
230
1.0
0
LINE
5
DB
330
1C
100
AcDbEntity
67
0
8
\U+042D\U+041C \U+0422\U+0430\U+0431\U+043B\U+0438\U+0446\U+0430
62
256
6
ByLayer
370
-1
48
1.0
60
0
100
AcDbLine
10
138.69
20
251.05
30
0.0
11
141.5
21
252.1
31
0.0
39
0.0
210
0.0
220
0.0
230
1.0
0
LINE
5
DC
330
1C
100
AcDbEntity
67
0
8
\U+042D\U+041C \U+0422\U+0430\U+0431\U+043B\U+0438\U+0446\U+0430
62
256
6
ByLayer
370
-1
48
1.0
60
0
100
AcDbLine
10
130.0
20
0.0
30
0.0
11
160.0
21
0.0
31
0.0
39
0.0
210
0.0
220
0.0
230
1.0
0
LINE
5
DD
330
1C
100
AcDbEntity
67
0
8
\U+042D\U+041C \U+0422\U+0430\U+0431\U+043B\U+0438\U+0446\U+0430
62
256
6
ByLayer
370
-1
48
1.0
60
0
100
AcDbLine
10
138.69
20
253.63
30
0.0
11
141.5
21
254.68
31
0.0
39
0.0
210
0.0
220
0.0
230
1.0
0
LINE
5
DE
330
1C
100
AcDbEntity
67
0
8
\U+042D\U+041C \U+0422\U+0430\U+0431\U+043B\U+0438\U+0446\U+0430
62
256
6
ByLayer
370
-1
48
1.0
60
0
100
AcDbLine
10
138.69
20
252.34
30
0.0
11
141.5
21
253.39
31
0.0
39
0.0
210
0.0
220
0.0
230
1.0
0
LINE
5
DF
330
1C
100
AcDbEntity
67
0
8
\U+042D\U+041C \U+0422\U+0430\U+0431\U+043B\U+0438\U+0446\U+0430
62
256
6
ByLayer
370
-1
48
1.0
60
0
100
AcDbLine
10
133.1
20
206.78
30
0.0
11
140.1
21
203.0
31
0.0
39
0.0
210
0.0
220
0.0
230
1.0
0
CIRCLE
5
E0
330
1C
100
AcDbEntity
67
0
8
\U+042D\U+041C \U+0422\U+0430\U+0431\U+043B\U+0438\U+0446\U+0430
62
256
6
ByLayer
370
-1
48
1.0
60
0
100
AcDbCircle
10
140.1
20
258.04
30
0.0
40
0.75
39
0.0
210
0.0
220
0.0
230
1.0
0
CIRCLE
5
E1
330
1C
100
AcDbEntity
67
0
8
\U+042D\U+041C \U+0422\U+0430\U+0431\U+043B\U+0438\U+0446\U+0430
62
256
6
ByLayer
370
-1
48
1.0
60
0
100
AcDbCircle
10
135.1
20
248.04
30
0.0
40
0.75
39
0.0
210
0.0
220
0.0
230
1.0
0
CIRCLE
5
E2
330
1C
100
AcDbEntity
67
0
8
\U+042D\U+041C \U+0422\U+0430\U+0431\U+043B\U+0438\U+0446\U+0430
62
256
6
ByLayer
370
-1
48
1.0
60
0
100
AcDbCircle
10
133.1
20
250.04
30
0.0
40
0.75
39
0.0
210
0.0
220
0.0
230
1.0
0
CIRCLE
5
E3
330
1C
100
AcDbEntity
67
0
8
\U+042D\U+041C \U+0422\U+0430\U+0431\U+043B\U+0438\U+0446\U+0430
62
256
6
ByLayer
370
-1
48
1.0
60
0
100
AcDbCircle
10
140.1
20
80.96
30
0.0
40
4.0
39
0.0
210
0.0
220
0.0
230
1.0
0
MTEXT
5
E4
330
1C
100
AcDbEntity
67
0
8
\U+042D\U+041C \U+0422\U+0435\U+043A\U+0441\U+0442
62
256
6
ByLayer
370
-1
48
1.0
60
0
100
AcDbMText
10
145.91
20
32.97
30
0.0
210
0.0
220
0.0
230
1.0
1
15,52/155,2
40
2.5
41
0.0
44
1.0
11
1.0
21
0.0
31
0.0
71
8
72
5
73
1
7
Standard
0
MTEXT
5
E5
330
1C
100
AcDbEntity
67
0
8
\U+042D\U+041C \U+0422\U+0435\U+043A\U+0441\U+0442
62
256
6
ByLayer
370
-1
48
1.0
60
0
100
AcDbMText
10
145.91
20
22.97
30
0.0
210
0.0
220
0.0
230
1.0
1

40
2.5
41
0.0
44
1.0
11
1.0
21
0.0
31
0.0
71
8
72
5
73
1
7
Standard
0
MTEXT
5
E6
330
1C
100
AcDbEntity
67
0
8
\U+042D\U+041C \U+0422\U+0435\U+043A\U+0441\U+0442
62
256
6
ByLayer
370
-1
48
1.0
60
0
100
AcDbMText
10
138.26
20
14.91
30
0.0
210
0.0
220
0.0
230
1.0
1
0,01
40
2.5
41
0.0
44
1.0
11
1.0
21
0.0
31
0.0
71
8
72
5
73
1
7
Standard
0
MTEXT
5
E7
330
1C
100
AcDbEntity
67
0
8
\U+042D\U+041C \U+0422\U+0435\U+043A\U+0441\U+0442
62
256
6
ByLayer
370
-1
48
1.0
60
0
100
AcDbMText
10
146.09
20
230.51
30
0.0
210
0.0
220
0.0
230
1.0
1
C16
40
2.5
41
0.0
44
1.0
11
1.0
21
0.0
31
0.0
71
8
72
5
73
1
7
Standard
0
MTEXT
5
E8
330
1C
100
AcDbEntity
67
0
8
\U+042D\U+041C \U+0422\U+0435\U+043A\U+0441\U+0442
62
256
6
ByLayer
370
-1
48
1.0
60
0
100
AcDbMText
10
144.98
20
53.21
30
0.0
210
0.0
220
0.0
230
1.0
1
030-\U+0420-008B \P\U+041D\U+0430\U+0441\U+043E\U+0441 Xylem, LOWARA
40
2.5
41
0.0
44
1.0
11
1.0
21
0.0
31
0.0
71
8
72
5
73
1
7
Standard
0
MTEXT
5
E9
330
1C
100
AcDbEntity
67
0
8
\U+042D\U+041C \U+0422\U+0435\U+043A\U+0441\U+0442
62
256
6
ByLayer
370
-1
48
1.0
60
0
100
AcDbMText
10
145.65
20
43.68
30
0.0
210
0.0
220
0.0
230
1.0
1
10
40
2.5
41
0.0
44
1.0
11
1.0
21
0.0
31
0.0
71
8
72
5
73
1
7
Standard
0
MTEXT
5
EA
330
1C
100
AcDbEntity
67
0
8
\U+042D\U+041C \U+0422\U+0435\U+043A\U+0441\U+0442
62
256
6
ByLayer
370
-1
48
1.0
60
0
100
AcDbMText
10
139.93
20
78.22
30
0.0
210
0.0
220
0.0
230
1.0
1
~\PM
40
2.5
41
0.0
44
1.0
11
1.0
21
0.0
31
0.0
71
8
72
5
73
1
7
Standard
0
MTEXT
5
EB
330
1C
100
AcDbEntity
67
0
8
\U+042D\U+041C \U+0422\U+0435\U+043A\U+0441\U+0442
62
256
6
ByLayer
370
-1
48
1.0
60
0
100
AcDbMText
10
138.23
20
176.7
30
0.0
210
0.0
220
0.0
230
1.0
1
\U+0412\U+0412\U+0413\U+043D\U+0433- 5x2,5
40
2.5
41
0.0
44
1.0
11
0.0000000267948966
21
1.0
31
0.0
71
8
72
5
73
1
7
Standard
0
MTEXT
5
EC
330
1C
100
AcDbEntity
67
0
8
\U+042D\U+041C \U+0422\U+0435\U+043A\U+0441\U+0442
62
256
6
ByLayer
370
-1
48
1.0
60
0
100
AcDbMText
10
146.1
20
176.7
30
0.0
210
0.0
220
0.0
230
1.0
1
030-\U+0420-008B-H1, L=5\U+043C
40
2.5
41
0.0
44
1.0
11
0.0000000267948966
21
1.0
31
0.0
71
8
72
5
73
1
7
Standard
0
MTEXT
5
ED
330
1C
100
AcDbEntity
67
0
8
\U+042D\U+041C \U+0422\U+0435\U+043A\U+0441\U+0442
62
256
6
ByLayer
370
-1
48
1.0
60
0
100
AcDbMText
10
151.88
20
11.12
30
0.0
210
0.0
220
0.0
230
1.0
1
0,01
40
2.5
41
0.0
44
1.0
11
1.0
21
0.0
31
0.0
71
8
72
5
73
1
7
Standard
0
MTEXT
5
EE
330
1C
100
AcDbEntity
67
0
8
\U+042D\U+041C \U+0422\U+0435\U+043A\U+0441\U+0442
62
256
6
ByLayer
370
-1
48
1.0
60
0
100
AcDbMText
10
145.91
20
1.42
30
0.0
210
0.0
220
0.0
230
1.0
1
102
40
2.5
41
0.0
44
1.0
11
1.0
21
0.0
31
0.0
71
8
72
5
73
1
7
Standard
0
MTEXT
5
EF
330
1C
100
AcDbEntity
67
0
8
\U+042D\U+041C \U+0422\U+0435\U+043A\U+0441\U+0442
62
256
6
ByLayer
370
-1
48
1.0
60
0
100
AcDbMText
10
145.93
20
233.74
30
0.0
210
0.0
220
0.0
230
1.0
1
\L160
40
2.5
41
0.0
44
1.0
11
1.0
21
0.0
31
0.0
71
8
72
5
73
1
7
Standard
0
MTEXT
5
F0
330
1C
100
AcDbEntity
67
0
8
\U+042D\U+041C \U+0422\U+0435\U+043A\U+0441\U+0442
62
256
6
ByLayer
370
-1
48
1.0
60
0
100
AcDbMText
10
146.03
20
240.41
30
0.0
210
0.0
220
0.0
230
1.0
1
QF2
40
2.5
41
0.0
44
1.0
11
1.0
21
0.0
31
0.0
71
8
72
5
73
1
7
Standard
0
MTEXT
5
F1
330
1C
100
AcDbEntity
67
0
8
\U+042D\U+041C \U+0422\U+0435\U+043A\U+0441\U+0442
62
256
6
ByLayer
370
-1
48
1.0
60
0
100
AcDbMText
10
146.58
20
237.41
30
0.0
210
0.0
220
0.0
230
1.0
1
\U+0410\U+0412
40
2.5
41
0.0
44
1.0
11
1.0
21
0.0
31
0.0
71
8
72
5
73
1
7
Standard
0
LINE
5
F4
330
1C
100
AcDbEntity
67
0
8
\U+042D\U+041C \U+0422\U+0430\U+0431\U+043B\U+0438\U+0446\U+0430
62
256
6
ByLayer
370
-1
48
1.0
60
0
100
AcDbLine
10
170.8
20
241.07
30
0.0
11
169.39
21
239.66
31
0.0
39
0.0
210
0.0
220
0.0
230
1.0
0
LINE
5
F5
330
1C
100
AcDbEntity
67
0
8
\U+042D\U+041C \U+0422\U+0430\U+0431\U+043B\U+0438\U+0446\U+0430
62
256
6
ByLayer
370
-1
48
1.0
60
0
100
AcDbLine
10
165.1
20
247.29
30
0.0
11
165.1
21
206.78
31
0.0
39
0.0
210
0.0
220
0.0
230
1.0
0
LINE
5
F6
330
1C
100
AcDbEntity
67
0
8
\U+042D\U+041C \U+0422\U+0430\U+0431\U+043B\U+0438\U+0446\U+0430
62
256
6
ByLayer
370
-1
48
1.0
60
0
100
AcDbLine
10
167.15
20
237.47
30
0.0
11
168.15
21
235.74
31
0.0
39
0.0
210
0.0
220
0.0
230
1.0
0
LINE
5
F7
330
1C
100
AcDbEntity
67
0
8
\U+042D\U+041C \U+0422\U+0430\U+0431\U+043B\U+0438\U+0446\U+0430
62
256
6
ByLayer
370
-1
48
1.0
60
0
100
AcDbLine
10
168.15
20
235.74
30
0.0
11
169.02
21
236.24
31
0.0
39
0.0
210
0.0
220
0.0
230
1.0
0
LINE
5
F8
330
1C
100
AcDbEntity
67
0
8
\U+042D\U+041C \U+0422\U+0430\U+0431\U+043B\U+0438\U+0446\U+0430
62
256
6
ByLayer
370
-1
48
1.0
60
0
100
AcDbLine
10
170.8
20
239.66
30
0.0
11
169.39
21
241.07
31
0.0
39
0.0
210
0.0
220
0.0
230
1.0
0
LINE
5
F9
330
1C
100
AcDbEntity
67
0
8
\U+042D\U+041C \U+0422\U+0430\U+0431\U+043B\U+0438\U+0446\U+0430
62
256
6
ByLayer
370
-1
48
1.0
60
0
100
AcDbLine
10
170.1
20
234.37
30
0.0
11
170.1
21
203.0
31
0.0
39
0.0
210
0.0
220
0.0
230
1.0
0
LINE
5
FA
330
1C
100
AcDbEntity
67
0
8
\U+042D\U+041C \U+0422\U+0430\U+0431\U+043B\U+0438\U+0446\U+0430
62
256
6
ByLayer
370
-1
48
1.0
60
0
100
AcDbLine
10
190.0
20
70.0
30
0.0
11
190.0
21
0.0
31
0.0
39
0.0
210
0.0
220
0.0
230
1.0
0
LINE
5
FB
330
1C
100
AcDbEntity
67
0
8
\U+042D\U+041C \U+0422\U+0430\U+0431\U+043B\U+0438\U+0446\U+0430
62
256
6
ByLayer
370
-1
48
1.0
60
0
100
AcDbLine
10
165.1
20
206.78
30
0.0
11
170.1
21
203.0
31
0.0
39
0.0
210
0.0
220
0.0
230
1.0
0
LINE
5
FC
330
1C
100
AcDbEntity
67
0
8
\U+042D\U+041C \U+0422\U+0430\U+0431\U+043B\U+0438\U+0446\U+0430
62
256
6
ByLayer
370
-1
48
1.0
60
0
100
AcDbLine
10
163.1
20
249.29
30
0.0
11
163.1
21
206.78
31
0.0
39
0.0
210
0.0
220
0.0
230
1.0
0
LINE
5
FD
330
1C
100
AcDbEntity
67
0
8
\U+042D\U+041C \U+0422\U+0430\U+0431\U+043B\U+0438\U+0446\U+0430
62
256
6
ByLayer
370
-1
48
1.0
60
0
100
AcDbLine
10
168.02
20
237.97
30
0.0
11
167.15
21
237.47
31
0.0
39
0.0
210
0.0
220
0.0
230
1.0
0
LINE
5
FE
330
1C
100
AcDbEntity
67
0
8
\U+042D\U+041C \U+0422\U+0430\U+0431\U+043B\U+0438\U+0446\U+0430
62
256
6
ByLayer
370
-1
48
1.0
60
0
100
AcDbLine
10
165.85
20
248.04
30
0.0
11
190.0
21
248.04
31
0.0
39
0.0
210
0.0
220
0.0
230
1.0
0
LINE
5
FF
330
1C
100
AcDbEntity
67
0
8
\U+042D\U+041C \U+0422\U+0430\U+0431\U+043B\U+0438\U+0446\U+0430
62
256
6
ByLayer
370
-1
48
1.0
60
0
100
AcDbLine
10
160.0
20
250.04
30
0.0
11
162.35
21
250.04
31
0.0
39
0.0
210
0.0
220
0.0
230
1.0
0
LINE
5
100
330
1C
100
AcDbEntity
67
0
8
\U+042D\U+041C \U+0422\U+0430\U+0431\U+043B\U+0438\U+0446\U+0430
62
256
6
ByLayer
370
-1
48
1.0
60
0
100
AcDbLine
10
163.85
20
250.04
30
0.0
11
190.0
21
250.04
31
0.0
39
0.0
210
0.0
220
0.0
230
1.0
0
LINE
5
101
330
1C
100
AcDbEntity
67
0
8
\U+042D\U+041C \U+0422\U+0430\U+0431\U+043B\U+0438\U+0446\U+0430
62
256
6
ByLayer
370
-1
48
1.0
60
0
100
AcDbLine
10
160.0
20
258.04
30
0.0
11
169.35
21
258.04
31
0.0
39
0.0
210
0.0
220
0.0
230
1.0
0
LINE
5
102
330
1C
100
AcDbEntity
67
0
8
\U+042D\U+041C \U+0422\U+0430\U+0431\U+043B\U+0438\U+0446\U+0430
62
256
6
ByLayer
370
-1
48
1.0
60
0
100
AcDbLine
10
170.85
20
258.04
30
0.0
11
190.0
21
258.04
31
0.0
39
0.0
210
0.0
220
0.0
230
1.0
0
LINE
5
103
330
1C
100
AcDbEntity
67
0
8
\U+042D\U+041C \U+0422\U+0430\U+0431\U+043B\U+0438\U+0446\U+0430
62
256
6
ByLayer
370
-1
48
1.0
60
0
100
AcDbLine
10
160.0
20
248.04
30
0.0
11
164.35
21
248.04
31
0.0
39
0.0
210
0.0
220
0.0
230
1.0
0
LINE
5
104
330
1C
100
AcDbEntity
67
0
8
\U+042D\U+041C \U+0422\U+0430\U+0431\U+043B\U+0438\U+0446\U+0430
62
256
6
ByLayer
370
-1
48
1.0
60
0
100
AcDbLine
10
170.1
20
203.0
30
0.0
11
170.1
21
84.96
31
0.0
39
0.0
210
0.0
220
0.0
230
1.0
0
LINE
5
105
330
1C
100
AcDbEntity
67
0
8
\U+042D\U+041C \U+0422\U+0430\U+0431\U+043B\U+0438\U+0446\U+0430
62
256
6
ByLayer
370
-1
48
1.0
60
0
100
AcDbLine
10
170.1
20
257.29
30
0.0
11
170.1
21
240.37
31
0.0
39
0.0
210
0.0
220
0.0
230
1.0
0
LINE
5
106
330
1C
100
AcDbEntity
67
0
8
\U+042D\U+041C \U+0422\U+0430\U+0431\U+043B\U+0438\U+0446\U+0430
62
256
6
ByLayer
370
-1
48
1.0
60
0
100
AcDbLine
10
170.1
20
234.37
30
0.0
11
167.1
21
239.56
31
0.0
39
0.0
210
0.0
220
0.0
230
1.0
0
LINE
5
107
330
1C
100
AcDbEntity
67
0
8
\U+042D\U+041C \U+0422\U+0430\U+0431\U+043B\U+0438\U+0446\U+0430
62
256
6
ByLayer
370
-1
48
1.0
60
0
100
AcDbLine
10
160.0
20
70.0
30
0.0
11
160.0
21
0.0
31
0.0
39
0.0
210
0.0
220
0.0
230
1.0
0
LINE
5
108
330
1C
100
AcDbEntity
67
0
8
\U+042D\U+041C \U+0422\U+0430\U+0431\U+043B\U+0438\U+0446\U+0430
62
256
6
ByLayer
370
-1
48
1.0
60
0
100
AcDbLine
10
190.0
20
70.0
30
0.0
11
190.0
21
0.0
31
0.0
39
0.0
210
0.0
220
0.0
230
1.0
0
LINE
5
109
330
1C
100
AcDbEntity
67
0
8
\U+042D\U+041C \U+0422\U+0430\U+0431\U+043B\U+0438\U+0446\U+0430
62
256
6
ByLayer
370
-1
48
1.0
60
0
100
AcDbLine
10
160.0
20
10.0
30
0.0
11
190.0
21
20.0
31
0.0
39
0.0
210
0.0
220
0.0
230
1.0
0
LINE
5
10A
330
1C
100
AcDbEntity
67
0
8
\U+042D\U+041C \U+0422\U+0430\U+0431\U+043B\U+0438\U+0446\U+0430
62
256
6
ByLayer
370
-1
48
1.0
60
0
100
AcDbLine
10
160.0
20
30.0
30
0.0
11
190.0
21
30.0
31
0.0
39
0.0
210
0.0
220
0.0
230
1.0
0
LINE
5
10B
330
1C
100
AcDbEntity
67
0
8
\U+042D\U+041C \U+0422\U+0430\U+0431\U+043B\U+0438\U+0446\U+0430
62
256
6
ByLayer
370
-1
48
1.0
60
0
100
AcDbLine
10
160.0
20
20.0
30
0.0
11
190.0
21
20.0
31
0.0
39
0.0
210
0.0
220
0.0
230
1.0
0
LINE
5
10C
330
1C
100
AcDbEntity
67
0
8
\U+042D\U+041C \U+0422\U+0430\U+0431\U+043B\U+0438\U+0446\U+0430
62
256
6
ByLayer
370
-1
48
1.0
60
0
100
AcDbLine
10
160.0
20
10.0
30
0.0
11
190.0
21
10.0
31
0.0
39
0.0
210
0.0
220
0.0
230
1.0
0
LINE
5
10D
330
1C
100
AcDbEntity
67
0
8
\U+042D\U+041C \U+0422\U+0430\U+0431\U+043B\U+0438\U+0446\U+0430
62
256
6
ByLayer
370
-1
48
1.0
60
0
100
AcDbLine
10
160.0
20
70.0
30
0.0
11
190.0
21
70.0
31
0.0
39
0.0
210
0.0
220
0.0
230
1.0
0
LINE
5
10E
330
1C
100
AcDbEntity
67
0
8
\U+042D\U+041C \U+0422\U+0430\U+0431\U+043B\U+0438\U+0446\U+0430
62
256
6
ByLayer
370
-1
48
1.0
60
0
100
AcDbLine
10
160.0
20
50.0
30
0.0
11
190.0
21
50.0
31
0.0
39
0.0
210
0.0
220
0.0
230
1.0
0
LINE
5
10F
330
1C
100
AcDbEntity
67
0
8
\U+042D\U+041C \U+0422\U+0430\U+0431\U+043B\U+0438\U+0446\U+0430
62
256
6
ByLayer
370
-1
48
1.0
60
0
100
AcDbLine
10
160.0
20
40.0
30
0.0
11
190.0
21
40.0
31
0.0
39
0.0
210
0.0
220
0.0
230
1.0
0
LINE
5
110
330
1C
100
AcDbEntity
67
0
8
\U+042D\U+041C \U+0422\U+0430\U+0431\U+043B\U+0438\U+0446\U+0430
62
256
6
ByLayer
370
-1
48
1.0
60
0
100
AcDbLine
10
168.69
20
251.05
30
0.0
11
171.5
21
252.1
31
0.0
39
0.0
210
0.0
220
0.0
230
1.0
0
LINE
5
111
330
1C
100
AcDbEntity
67
0
8
\U+042D\U+041C \U+0422\U+0430\U+0431\U+043B\U+0438\U+0446\U+0430
62
256
6
ByLayer
370
-1
48
1.0
60
0
100
AcDbLine
10
160.0
20
0.0
30
0.0
11
190.0
21
0.0
31
0.0
39
0.0
210
0.0
220
0.0
230
1.0
0
LINE
5
112
330
1C
100
AcDbEntity
67
0
8
\U+042D\U+041C \U+0422\U+0430\U+0431\U+043B\U+0438\U+0446\U+0430
62
256
6
ByLayer
370
-1
48
1.0
60
0
100
AcDbLine
10
168.69
20
253.63
30
0.0
11
171.5
21
254.68
31
0.0
39
0.0
210
0.0
220
0.0
230
1.0
0
LINE
5
113
330
1C
100
AcDbEntity
67
0
8
\U+042D\U+041C \U+0422\U+0430\U+0431\U+043B\U+0438\U+0446\U+0430
62
256
6
ByLayer
370
-1
48
1.0
60
0
100
AcDbLine
10
168.69
20
252.34
30
0.0
11
171.5
21
253.39
31
0.0
39
0.0
210
0.0
220
0.0
230
1.0
0
LINE
5
114
330
1C
100
AcDbEntity
67
0
8
\U+042D\U+041C \U+0422\U+0430\U+0431\U+043B\U+0438\U+0446\U+0430
62
256
6
ByLayer
370
-1
48
1.0
60
0
100
AcDbLine
10
163.1
20
206.78
30
0.0
11
170.1
21
203.0
31
0.0
39
0.0
210
0.0
220
0.0
230
1.0
0
CIRCLE
5
115
330
1C
100
AcDbEntity
67
0
8
\U+042D\U+041C \U+0422\U+0430\U+0431\U+043B\U+0438\U+0446\U+0430
62
256
6
ByLayer
370
-1
48
1.0
60
0
100
AcDbCircle
10
170.1
20
258.04
30
0.0
40
0.75
39
0.0
210
0.0
220
0.0
230
1.0
0
CIRCLE
5
116
330
1C
100
AcDbEntity
67
0
8
\U+042D\U+041C \U+0422\U+0430\U+0431\U+043B\U+0438\U+0446\U+0430
62
256
6
ByLayer
370
-1
48
1.0
60
0
100
AcDbCircle
10
165.1
20
248.04
30
0.0
40
0.75
39
0.0
210
0.0
220
0.0
230
1.0
0
CIRCLE
5
117
330
1C
100
AcDbEntity
67
0
8
\U+042D\U+041C \U+0422\U+0430\U+0431\U+043B\U+0438\U+0446\U+0430
62
256
6
ByLayer
370
-1
48
1.0
60
0
100
AcDbCircle
10
163.1
20
250.04
30
0.0
40
0.75
39
0.0
210
0.0
220
0.0
230
1.0
0
CIRCLE
5
118
330
1C
100
AcDbEntity
67
0
8
\U+042D\U+041C \U+0422\U+0430\U+0431\U+043B\U+0438\U+0446\U+0430
62
256
6
ByLayer
370
-1
48
1.0
60
0
100
AcDbCircle
10
170.1
20
80.96
30
0.0
40
4.0
39
0.0
210
0.0
220
0.0
230
1.0
0
MTEXT
5
119
330
1C
100
AcDbEntity
67
0
8
\U+042D\U+041C \U+0422\U+0435\U+043A\U+0441\U+0442
62
256
6
ByLayer
370
-1
48
1.0
60
0
100
AcDbMText
10
175.91
20
32.97
30
0.0
210
0.0
220
0.0
230
1.0
1
15,52/108,64
40
2.5
41
0.0
44
1.0
11
1.0
21
0.0
31
0.0
71
8
72
5
73
1
7
Standard
0
MTEXT
5
11A
330
1C
100
AcDbEntity
67
0
8
\U+042D\U+041C \U+0422\U+0435\U+043A\U+0441\U+0442
62
256
6
ByLayer
370
-1
48
1.0
60
0
100
AcDbMText
10
175.91
20
22.97
30
0.0
210
0.0
220
0.0
230
1.0
1

40
2.5
41
0.0
44
1.0
11
1.0
21
0.0
31
0.0
71
8
72
5
73
1
7
Standard
0
MTEXT
5
11B
330
1C
100
AcDbEntity
67
0
8
\U+042D\U+041C \U+0422\U+0435\U+043A\U+0441\U+0442
62
256
6
ByLayer
370
-1
48
1.0
60
0
100
AcDbMText
10
168.26
20
14.91
30
0.0
210
0.0
220
0.0
230
1.0
1
0,01
40
2.5
41
0.0
44
1.0
11
1.0
21
0.0
31
0.0
71
8
72
5
73
1
7
Standard
0
MTEXT
5
11C
330
1C
100
AcDbEntity
67
0
8
\U+042D\U+041C \U+0422\U+0435\U+043A\U+0441\U+0442
62
256
6
ByLayer
370
-1
48
1.0
60
0
100
AcDbMText
10
176.09
20
230.51
30
0.0
210
0.0
220
0.0
230
1.0
1
C16
40
2.5
41
0.0
44
1.0
11
1.0
21
0.0
31
0.0
71
8
72
5
73
1
7
Standard
0
MTEXT
5
11D
330
1C
100
AcDbEntity
67
0
8
\U+042D\U+041C \U+0422\U+0435\U+043A\U+0441\U+0442
62
256
6
ByLayer
370
-1
48
1.0
60
0
100
AcDbMText
10
174.98
20
53.21
30
0.0
210
0.0
220
0.0
230
1.0
1
030-\U+0420-008\U+0421 \P\U+041D\U+0430\U+0441\U+043E\U+0441 Xylem, LOWARA
40
2.5
41
0.0
44
1.0
11
1.0
21
0.0
31
0.0
71
8
72
5
73
1
7
Standard
0
MTEXT
5
11E
330
1C
100
AcDbEntity
67
0
8
\U+042D\U+041C \U+0422\U+0435\U+043A\U+0441\U+0442
62
256
6
ByLayer
370
-1
48
1.0
60
0
100
AcDbMText
10
175.65
20
43.68
30
0.0
210
0.0
220
0.0
230
1.0
1
10
40
2.5
41
0.0
44
1.0
11
1.0
21
0.0
31
0.0
71
8
72
5
73
1
7
Standard
0
MTEXT
5
11F
330
1C
100
AcDbEntity
67
0
8
\U+042D\U+041C \U+0422\U+0435\U+043A\U+0441\U+0442
62
256
6
ByLayer
370
-1
48
1.0
60
0
100
AcDbMText
10
169.93
20
78.22
30
0.0
210
0.0
220
0.0
230
1.0
1
~\PM
40
2.5
41
0.0
44
1.0
11
1.0
21
0.0
31
0.0
71
8
72
5
73
1
7
Standard
0
MTEXT
5
120
330
1C
100
AcDbEntity
67
0
8
\U+042D\U+041C \U+0422\U+0435\U+043A\U+0441\U+0442
62
256
6
ByLayer
370
-1
48
1.0
60
0
100
AcDbMText
10
168.23
20
176.7
30
0.0
210
0.0
220
0.0
230
1.0
1
\U+0412\U+0412\U+0413\U+043D\U+0433- 5x2,5
40
2.5
41
0.0
44
1.0
11
0.0000000267948966
21
1.0
31
0.0
71
8
72
5
73
1
7
Standard
0
MTEXT
5
121
330
1C
100
AcDbEntity
67
0
8
\U+042D\U+041C \U+0422\U+0435\U+043A\U+0441\U+0442
62
256
6
ByLayer
370
-1
48
1.0
60
0
100
AcDbMText
10
176.1
20
176.7
30
0.0
210
0.0
220
0.0
230
1.0
1
030-\U+0420-008\U+0421-H1, L=5\U+043C
40
2.5
41
0.0
44
1.0
11
0.0000000267948966
21
1.0
31
0.0
71
8
72
5
73
1
7
Standard
0
MTEXT
5
122
330
1C
100
AcDbEntity
67
0
8
\U+042D\U+041C \U+0422\U+0435\U+043A\U+0441\U+0442
62
256
6
ByLayer
370
-1
48
1.0
60
0
100
AcDbMText
10
181.88
20
11.12
30
0.0
210
0.0
220
0.0
230
1.0
1
0,01
40
2.5
41
0.0
44
1.0
11
1.0
21
0.0
31
0.0
71
8
72
5
73
1
7
Standard
0
MTEXT
5
123
330
1C
100
AcDbEntity
67
0
8
\U+042D\U+041C \U+0422\U+0435\U+043A\U+0441\U+0442
62
256
6
ByLayer
370
-1
48
1.0
60
0
100
AcDbMText
10
175.91
20
1.42
30
0.0
210
0.0
220
0.0
230
1.0
1
102
40
2.5
41
0.0
44
1.0
11
1.0
21
0.0
31
0.0
71
8
72
5
73
1
7
Standard
0
MTEXT
5
124
330
1C
100
AcDbEntity
67
0
8
\U+042D\U+041C \U+0422\U+0435\U+043A\U+0441\U+0442
62
256
6
ByLayer
370
-1
48
1.0
60
0
100
AcDbMText
10
175.93
20
233.74
30
0.0
210
0.0
220
0.0
230
1.0
1
\L160
40
2.5
41
0.0
44
1.0
11
1.0
21
0.0
31
0.0
71
8
72
5
73
1
7
Standard
0
MTEXT
5
125
330
1C
100
AcDbEntity
67
0
8
\U+042D\U+041C \U+0422\U+0435\U+043A\U+0441\U+0442
62
256
6
ByLayer
370
-1
48
1.0
60
0
100
AcDbMText
10
176.03
20
240.41
30
0.0
210
0.0
220
0.0
230
1.0
1
QF3
40
2.5
41
0.0
44
1.0
11
1.0
21
0.0
31
0.0
71
8
72
5
73
1
7
Standard
0
MTEXT
5
126
330
1C
100
AcDbEntity
67
0
8
\U+042D\U+041C \U+0422\U+0435\U+043A\U+0441\U+0442
62
256
6
ByLayer
370
-1
48
1.0
60
0
100
AcDbMText
10
176.58
20
237.41
30
0.0
210
0.0
220
0.0
230
1.0
1
\U+0410\U+0412
40
2.5
41
0.0
44
1.0
11
1.0
21
0.0
31
0.0
71
8
72
5
73
1
7
Standard
0
LINE
5
129
330
1C
100
AcDbEntity
67
0
8
\U+042D\U+041C \U+0422\U+0430\U+0431\U+043B\U+0438\U+0446\U+0430
62
256
6
ByLayer
370
-1
48
1.0
60
0
100
AcDbLine
10
200.8
20
241.07
30
0.0
11
199.39
21
239.66
31
0.0
39
0.0
210
0.0
220
0.0
230
1.0
0
LINE
5
12A
330
1C
100
AcDbEntity
67
0
8
\U+042D\U+041C \U+0422\U+0430\U+0431\U+043B\U+0438\U+0446\U+0430
62
256
6
ByLayer
370
-1
48
1.0
60
0
100
AcDbLine
10
195.1
20
247.29
30
0.0
11
195.1
21
206.78
31
0.0
39
0.0
210
0.0
220
0.0
230
1.0
0
LINE
5
12B
330
1C
100
AcDbEntity
67
0
8
\U+042D\U+041C \U+0422\U+0430\U+0431\U+043B\U+0438\U+0446\U+0430
62
256
6
ByLayer
370
-1
48
1.0
60
0
100
AcDbLine
10
197.15
20
237.47
30
0.0
11
198.15
21
235.74
31
0.0
39
0.0
210
0.0
220
0.0
230
1.0
0
LINE
5
12C
330
1C
100
AcDbEntity
67
0
8
\U+042D\U+041C \U+0422\U+0430\U+0431\U+043B\U+0438\U+0446\U+0430
62
256
6
ByLayer
370
-1
48
1.0
60
0
100
AcDbLine
10
198.15
20
235.74
30
0.0
11
199.02
21
236.24
31
0.0
39
0.0
210
0.0
220
0.0
230
1.0
0
LINE
5
12D
330
1C
100
AcDbEntity
67
0
8
\U+042D\U+041C \U+0422\U+0430\U+0431\U+043B\U+0438\U+0446\U+0430
62
256
6
ByLayer
370
-1
48
1.0
60
0
100
AcDbLine
10
200.8
20
239.66
30
0.0
11
199.39
21
241.07
31
0.0
39
0.0
210
0.0
220
0.0
230
1.0
0
LINE
5
12E
330
1C
100
AcDbEntity
67
0
8
\U+042D\U+041C \U+0422\U+0430\U+0431\U+043B\U+0438\U+0446\U+0430
62
256
6
ByLayer
370
-1
48
1.0
60
0
100
AcDbLine
10
200.1
20
234.37
30
0.0
11
200.1
21
203.0
31
0.0
39
0.0
210
0.0
220
0.0
230
1.0
0
LINE
5
12F
330
1C
100
AcDbEntity
67
0
8
\U+042D\U+041C \U+0422\U+0430\U+0431\U+043B\U+0438\U+0446\U+0430
62
256
6
ByLayer
370
-1
48
1.0
60
0
100
AcDbLine
10
220.0
20
70.0
30
0.0
11
220.0
21
0.0
31
0.0
39
0.0
210
0.0
220
0.0
230
1.0
0
LINE
5
130
330
1C
100
AcDbEntity
67
0
8
\U+042D\U+041C \U+0422\U+0430\U+0431\U+043B\U+0438\U+0446\U+0430
62
256
6
ByLayer
370
-1
48
1.0
60
0
100
AcDbLine
10
195.1
20
206.78
30
0.0
11
200.1
21
203.0
31
0.0
39
0.0
210
0.0
220
0.0
230
1.0
0
LINE
5
131
330
1C
100
AcDbEntity
67
0
8
\U+042D\U+041C \U+0422\U+0430\U+0431\U+043B\U+0438\U+0446\U+0430
62
256
6
ByLayer
370
-1
48
1.0
60
0
100
AcDbLine
10
193.1
20
249.29
30
0.0
11
193.1
21
206.78
31
0.0
39
0.0
210
0.0
220
0.0
230
1.0
0
LINE
5
132
330
1C
100
AcDbEntity
67
0
8
\U+042D\U+041C \U+0422\U+0430\U+0431\U+043B\U+0438\U+0446\U+0430
62
256
6
ByLayer
370
-1
48
1.0
60
0
100
AcDbLine
10
198.02
20
237.97
30
0.0
11
197.15
21
237.47
31
0.0
39
0.0
210
0.0
220
0.0
230
1.0
0
LINE
5
133
330
1C
100
AcDbEntity
67
0
8
\U+042D\U+041C \U+0422\U+0430\U+0431\U+043B\U+0438\U+0446\U+0430
62
256
6
ByLayer
370
-1
48
1.0
60
0
100
AcDbLine
10
195.85
20
248.04
30
0.0
11
220.0
21
248.04
31
0.0
39
0.0
210
0.0
220
0.0
230
1.0
0
LINE
5
134
330
1C
100
AcDbEntity
67
0
8
\U+042D\U+041C \U+0422\U+0430\U+0431\U+043B\U+0438\U+0446\U+0430
62
256
6
ByLayer
370
-1
48
1.0
60
0
100
AcDbLine
10
190.0
20
250.04
30
0.0
11
192.35
21
250.04
31
0.0
39
0.0
210
0.0
220
0.0
230
1.0
0
LINE
5
135
330
1C
100
AcDbEntity
67
0
8
\U+042D\U+041C \U+0422\U+0430\U+0431\U+043B\U+0438\U+0446\U+0430
62
256
6
ByLayer
370
-1
48
1.0
60
0
100
AcDbLine
10
193.85
20
250.04
30
0.0
11
220.0
21
250.04
31
0.0
39
0.0
210
0.0
220
0.0
230
1.0
0
LINE
5
136
330
1C
100
AcDbEntity
67
0
8
\U+042D\U+041C \U+0422\U+0430\U+0431\U+043B\U+0438\U+0446\U+0430
62
256
6
ByLayer
370
-1
48
1.0
60
0
100
AcDbLine
10
190.0
20
258.04
30
0.0
11
199.35
21
258.04
31
0.0
39
0.0
210
0.0
220
0.0
230
1.0
0
LINE
5
137
330
1C
100
AcDbEntity
67
0
8
\U+042D\U+041C \U+0422\U+0430\U+0431\U+043B\U+0438\U+0446\U+0430
62
256
6
ByLayer
370
-1
48
1.0
60
0
100
AcDbLine
10
200.85
20
258.04
30
0.0
11
220.0
21
258.04
31
0.0
39
0.0
210
0.0
220
0.0
230
1.0
0
LINE
5
138
330
1C
100
AcDbEntity
67
0
8
\U+042D\U+041C \U+0422\U+0430\U+0431\U+043B\U+0438\U+0446\U+0430
62
256
6
ByLayer
370
-1
48
1.0
60
0
100
AcDbLine
10
190.0
20
248.04
30
0.0
11
194.35
21
248.04
31
0.0
39
0.0
210
0.0
220
0.0
230
1.0
0
LINE
5
139
330
1C
100
AcDbEntity
67
0
8
\U+042D\U+041C \U+0422\U+0430\U+0431\U+043B\U+0438\U+0446\U+0430
62
256
6
ByLayer
370
-1
48
1.0
60
0
100
AcDbLine
10
200.1
20
203.0
30
0.0
11
200.1
21
84.96
31
0.0
39
0.0
210
0.0
220
0.0
230
1.0
0
LINE
5
13A
330
1C
100
AcDbEntity
67
0
8
\U+042D\U+041C \U+0422\U+0430\U+0431\U+043B\U+0438\U+0446\U+0430
62
256
6
ByLayer
370
-1
48
1.0
60
0
100
AcDbLine
10
200.1
20
257.29
30
0.0
11
200.1
21
240.37
31
0.0
39
0.0
210
0.0
220
0.0
230
1.0
0
LINE
5
13B
330
1C
100
AcDbEntity
67
0
8
\U+042D\U+041C \U+0422\U+0430\U+0431\U+043B\U+0438\U+0446\U+0430
62
256
6
ByLayer
370
-1
48
1.0
60
0
100
AcDbLine
10
200.1
20
234.37
30
0.0
11
197.1
21
239.56
31
0.0
39
0.0
210
0.0
220
0.0
230
1.0
0
LINE
5
13C
330
1C
100
AcDbEntity
67
0
8
\U+042D\U+041C \U+0422\U+0430\U+0431\U+043B\U+0438\U+0446\U+0430
62
256
6
ByLayer
370
-1
48
1.0
60
0
100
AcDbLine
10
190.0
20
70.0
30
0.0
11
190.0
21
0.0
31
0.0
39
0.0
210
0.0
220
0.0
230
1.0
0
LINE
5
13D
330
1C
100
AcDbEntity
67
0
8
\U+042D\U+041C \U+0422\U+0430\U+0431\U+043B\U+0438\U+0446\U+0430
62
256
6
ByLayer
370
-1
48
1.0
60
0
100
AcDbLine
10
220.0
20
70.0
30
0.0
11
220.0
21
0.0
31
0.0
39
0.0
210
0.0
220
0.0
230
1.0
0
LINE
5
13E
330
1C
100
AcDbEntity
67
0
8
\U+042D\U+041C \U+0422\U+0430\U+0431\U+043B\U+0438\U+0446\U+0430
62
256
6
ByLayer
370
-1
48
1.0
60
0
100
AcDbLine
10
190.0
20
10.0
30
0.0
11
220.0
21
20.0
31
0.0
39
0.0
210
0.0
220
0.0
230
1.0
0
LINE
5
13F
330
1C
100
AcDbEntity
67
0
8
\U+042D\U+041C \U+0422\U+0430\U+0431\U+043B\U+0438\U+0446\U+0430
62
256
6
ByLayer
370
-1
48
1.0
60
0
100
AcDbLine
10
190.0
20
30.0
30
0.0
11
220.0
21
30.0
31
0.0
39
0.0
210
0.0
220
0.0
230
1.0
0
LINE
5
140
330
1C
100
AcDbEntity
67
0
8
\U+042D\U+041C \U+0422\U+0430\U+0431\U+043B\U+0438\U+0446\U+0430
62
256
6
ByLayer
370
-1
48
1.0
60
0
100
AcDbLine
10
190.0
20
20.0
30
0.0
11
220.0
21
20.0
31
0.0
39
0.0
210
0.0
220
0.0
230
1.0
0
LINE
5
141
330
1C
100
AcDbEntity
67
0
8
\U+042D\U+041C \U+0422\U+0430\U+0431\U+043B\U+0438\U+0446\U+0430
62
256
6
ByLayer
370
-1
48
1.0
60
0
100
AcDbLine
10
190.0
20
10.0
30
0.0
11
220.0
21
10.0
31
0.0
39
0.0
210
0.0
220
0.0
230
1.0
0
LINE
5
142
330
1C
100
AcDbEntity
67
0
8
\U+042D\U+041C \U+0422\U+0430\U+0431\U+043B\U+0438\U+0446\U+0430
62
256
6
ByLayer
370
-1
48
1.0
60
0
100
AcDbLine
10
190.0
20
70.0
30
0.0
11
220.0
21
70.0
31
0.0
39
0.0
210
0.0
220
0.0
230
1.0
0
LINE
5
143
330
1C
100
AcDbEntity
67
0
8
\U+042D\U+041C \U+0422\U+0430\U+0431\U+043B\U+0438\U+0446\U+0430
62
256
6
ByLayer
370
-1
48
1.0
60
0
100
AcDbLine
10
190.0
20
50.0
30
0.0
11
220.0
21
50.0
31
0.0
39
0.0
210
0.0
220
0.0
230
1.0
0
LINE
5
144
330
1C
100
AcDbEntity
67
0
8
\U+042D\U+041C \U+0422\U+0430\U+0431\U+043B\U+0438\U+0446\U+0430
62
256
6
ByLayer
370
-1
48
1.0
60
0
100
AcDbLine
10
190.0
20
40.0
30
0.0
11
220.0
21
40.0
31
0.0
39
0.0
210
0.0
220
0.0
230
1.0
0
LINE
5
145
330
1C
100
AcDbEntity
67
0
8
\U+042D\U+041C \U+0422\U+0430\U+0431\U+043B\U+0438\U+0446\U+0430
62
256
6
ByLayer
370
-1
48
1.0
60
0
100
AcDbLine
10
198.69
20
251.05
30
0.0
11
201.5
21
252.1
31
0.0
39
0.0
210
0.0
220
0.0
230
1.0
0
LINE
5
146
330
1C
100
AcDbEntity
67
0
8
\U+042D\U+041C \U+0422\U+0430\U+0431\U+043B\U+0438\U+0446\U+0430
62
256
6
ByLayer
370
-1
48
1.0
60
0
100
AcDbLine
10
190.0
20
0.0
30
0.0
11
220.0
21
0.0
31
0.0
39
0.0
210
0.0
220
0.0
230
1.0
0
LINE
5
147
330
1C
100
AcDbEntity
67
0
8
\U+042D\U+041C \U+0422\U+0430\U+0431\U+043B\U+0438\U+0446\U+0430
62
256
6
ByLayer
370
-1
48
1.0
60
0
100
AcDbLine
10
198.69
20
253.63
30
0.0
11
201.5
21
254.68
31
0.0
39
0.0
210
0.0
220
0.0
230
1.0
0
LINE
5
148
330
1C
100
AcDbEntity
67
0
8
\U+042D\U+041C \U+0422\U+0430\U+0431\U+043B\U+0438\U+0446\U+0430
62
256
6
ByLayer
370
-1
48
1.0
60
0
100
AcDbLine
10
198.69
20
252.34
30
0.0
11
201.5
21
253.39
31
0.0
39
0.0
210
0.0
220
0.0
230
1.0
0
LINE
5
149
330
1C
100
AcDbEntity
67
0
8
\U+042D\U+041C \U+0422\U+0430\U+0431\U+043B\U+0438\U+0446\U+0430
62
256
6
ByLayer
370
-1
48
1.0
60
0
100
AcDbLine
10
193.1
20
206.78
30
0.0
11
200.1
21
203.0
31
0.0
39
0.0
210
0.0
220
0.0
230
1.0
0
CIRCLE
5
14A
330
1C
100
AcDbEntity
67
0
8
\U+042D\U+041C \U+0422\U+0430\U+0431\U+043B\U+0438\U+0446\U+0430
62
256
6
ByLayer
370
-1
48
1.0
60
0
100
AcDbCircle
10
200.1
20
258.04
30
0.0
40
0.75
39
0.0
210
0.0
220
0.0
230
1.0
0
CIRCLE
5
14B
330
1C
100
AcDbEntity
67
0
8
\U+042D\U+041C \U+0422\U+0430\U+0431\U+043B\U+0438\U+0446\U+0430
62
256
6
ByLayer
370
-1
48
1.0
60
0
100
AcDbCircle
10
195.1
20
248.04
30
0.0
40
0.75
39
0.0
210
0.0
220
0.0
230
1.0
0
CIRCLE
5
14C
330
1C
100
AcDbEntity
67
0
8
\U+042D\U+041C \U+0422\U+0430\U+0431\U+043B\U+0438\U+0446\U+0430
62
256
6
ByLayer
370
-1
48
1.0
60
0
100
AcDbCircle
10
193.1
20
250.04
30
0.0
40
0.75
39
0.0
210
0.0
220
0.0
230
1.0
0
CIRCLE
5
14D
330
1C
100
AcDbEntity
67
0
8
\U+042D\U+041C \U+0422\U+0430\U+0431\U+043B\U+0438\U+0446\U+0430
62
256
6
ByLayer
370
-1
48
1.0
60
0
100
AcDbCircle
10
200.1
20
80.96
30
0.0
40
4.0
39
0.0
210
0.0
220
0.0
230
1.0
0
MTEXT
5
14E
330
1C
100
AcDbEntity
67
0
8
\U+042D\U+041C \U+0422\U+0435\U+043A\U+0441\U+0442
62
256
6
ByLayer
370
-1
48
1.0
60
0
100
AcDbMText
10
205.91
20
32.97
30
0.0
210
0.0
220
0.0
230
1.0
1
15,52/15,52
40
2.5
41
0.0
44
1.0
11
1.0
21
0.0
31
0.0
71
8
72
5
73
1
7
Standard
0
MTEXT
5
14F
330
1C
100
AcDbEntity
67
0
8
\U+042D\U+041C \U+0422\U+0435\U+043A\U+0441\U+0442
62
256
6
ByLayer
370
-1
48
1.0
60
0
100
AcDbMText
10
205.91
20
22.97
30
0.0
210
0.0
220
0.0
230
1.0
1

40
2.5
41
0.0
44
1.0
11
1.0
21
0.0
31
0.0
71
8
72
5
73
1
7
Standard
0
MTEXT
5
150
330
1C
100
AcDbEntity
67
0
8
\U+042D\U+041C \U+0422\U+0435\U+043A\U+0441\U+0442
62
256
6
ByLayer
370
-1
48
1.0
60
0
100
AcDbMText
10
198.26
20
14.91
30
0.0
210
0.0
220
0.0
230
1.0
1
0,01
40
2.5
41
0.0
44
1.0
11
1.0
21
0.0
31
0.0
71
8
72
5
73
1
7
Standard
0
MTEXT
5
151
330
1C
100
AcDbEntity
67
0
8
\U+042D\U+041C \U+0422\U+0435\U+043A\U+0441\U+0442
62
256
6
ByLayer
370
-1
48
1.0
60
0
100
AcDbMText
10
206.09
20
230.51
30
0.0
210
0.0
220
0.0
230
1.0
1
C16
40
2.5
41
0.0
44
1.0
11
1.0
21
0.0
31
0.0
71
8
72
5
73
1
7
Standard
0
MTEXT
5
152
330
1C
100
AcDbEntity
67
0
8
\U+042D\U+041C \U+0422\U+0435\U+043A\U+0441\U+0442
62
256
6
ByLayer
370
-1
48
1.0
60
0
100
AcDbMText
10
204.98
20
53.21
30
0.0
210
0.0
220
0.0
230
1.0
1
030-\U+0420-008D \P\U+043D\U+0430\U+0441\U+043E\U+0441 \U+0442\U+0435\U+0445\U+043D\U+043E\U+043B\U+043E\U+0433\U+0438\U+0447\U+0435\U+0441\U+043A\U+0438\U+0439
40
2.5
41
0.0
44
1.0
11
1.0
21
0.0
31
0.0
71
8
72
5
73
1
7
Standard
0
MTEXT
5
153
330
1C
100
AcDbEntity
67
0
8
\U+042D\U+041C \U+0422\U+0435\U+043A\U+0441\U+0442
62
256
6
ByLayer
370
-1
48
1.0
60
0
100
AcDbMText
10
205.65
20
43.68
30
0.0
210
0.0
220
0.0
230
1.0
1
10
40
2.5
41
0.0
44
1.0
11
1.0
21
0.0
31
0.0
71
8
72
5
73
1
7
Standard
0
MTEXT
5
154
330
1C
100
AcDbEntity
67
0
8
\U+042D\U+041C \U+0422\U+0435\U+043A\U+0441\U+0442
62
256
6
ByLayer
370
-1
48
1.0
60
0
100
AcDbMText
10
199.93
20
78.22
30
0.0
210
0.0
220
0.0
230
1.0
1
~\PM
40
2.5
41
0.0
44
1.0
11
1.0
21
0.0
31
0.0
71
8
72
5
73
1
7
Standard
0
MTEXT
5
155
330
1C
100
AcDbEntity
67
0
8
\U+042D\U+041C \U+0422\U+0435\U+043A\U+0441\U+0442
62
256
6
ByLayer
370
-1
48
1.0
60
0
100
AcDbMText
10
198.23
20
176.7
30
0.0
210
0.0
220
0.0
230
1.0
1
\U+0412\U+0412\U+0413\U+043D\U+0433- 5x2,5
40
2.5
41
0.0
44
1.0
11
0.0000000267948966
21
1.0
31
0.0
71
8
72
5
73
1
7
Standard
0
MTEXT
5
156
330
1C
100
AcDbEntity
67
0
8
\U+042D\U+041C \U+0422\U+0435\U+043A\U+0441\U+0442
62
256
6
ByLayer
370
-1
48
1.0
60
0
100
AcDbMText
10
206.1
20
176.7
30
0.0
210
0.0
220
0.0
230
1.0
1
030-\U+0420-008D-H1, L=5\U+043C
40
2.5
41
0.0
44
1.0
11
0.0000000267948966
21
1.0
31
0.0
71
8
72
5
73
1
7
Standard
0
MTEXT
5
157
330
1C
100
AcDbEntity
67
0
8
\U+042D\U+041C \U+0422\U+0435\U+043A\U+0441\U+0442
62
256
6
ByLayer
370
-1
48
1.0
60
0
100
AcDbMText
10
211.88
20
11.12
30
0.0
210
0.0
220
0.0
230
1.0
1
0,01
40
2.5
41
0.0
44
1.0
11
1.0
21
0.0
31
0.0
71
8
72
5
73
1
7
Standard
0
MTEXT
5
158
330
1C
100
AcDbEntity
67
0
8
\U+042D\U+041C \U+0422\U+0435\U+043A\U+0441\U+0442
62
256
6
ByLayer
370
-1
48
1.0
60
0
100
AcDbMText
10
205.91
20
1.42
30
0.0
210
0.0
220
0.0
230
1.0
1
102
40
2.5
41
0.0
44
1.0
11
1.0
21
0.0
31
0.0
71
8
72
5
73
1
7
Standard
0
MTEXT
5
159
330
1C
100
AcDbEntity
67
0
8
\U+042D\U+041C \U+0422\U+0435\U+043A\U+0441\U+0442
62
256
6
ByLayer
370
-1
48
1.0
60
0
100
AcDbMText
10
205.93
20
233.74
30
0.0
210
0.0
220
0.0
230
1.0
1
\L160
40
2.5
41
0.0
44
1.0
11
1.0
21
0.0
31
0.0
71
8
72
5
73
1
7
Standard
0
MTEXT
5
15A
330
1C
100
AcDbEntity
67
0
8
\U+042D\U+041C \U+0422\U+0435\U+043A\U+0441\U+0442
62
256
6
ByLayer
370
-1
48
1.0
60
0
100
AcDbMText
10
206.03
20
240.41
30
0.0
210
0.0
220
0.0
230
1.0
1
QF4
40
2.5
41
0.0
44
1.0
11
1.0
21
0.0
31
0.0
71
8
72
5
73
1
7
Standard
0
MTEXT
5
15B
330
1C
100
AcDbEntity
67
0
8
\U+042D\U+041C \U+0422\U+0435\U+043A\U+0441\U+0442
62
256
6
ByLayer
370
-1
48
1.0
60
0
100
AcDbMText
10
206.58
20
237.41
30
0.0
210
0.0
220
0.0
230
1.0
1
\U+0410\U+0412
40
2.5
41
0.0
44
1.0
11
1.0
21
0.0
31
0.0
71
8
72
5
73
1
7
Standard
0
VIEWPORT
5
53
330
4F
100
AcDbEntity
67
1
8
0
62
256
6
ByLayer
370
-1
48
1.0
60
0
100
AcDbViewport
10
0.0
20
0.0
30
0.0
40
297.0
41
210.0
68
1
69
1
12
50.0
22
100.0
13
0.0
23
0.0
14
10.0
24
10.0
15
10.0
25
10.0
16
0.0
26
0.0
36
1.0
17
0.0
27
0.0
37
0.0
42
50.0
43
0.0
44
0.0
45
250.0
50
0.0
51
0.0
72
1000
90
819232
110
0.0
120
0.0
130
0.0
111
1.0
121
0.0
131
0.0
112
0.0
122
1.0
132
0.0
0
ENDSEC
0
SECTION
2
OBJECTS
0
DICTIONARY
5
15C
330
0
100
AcDbDictionary
280
1
281
1
3
ACAD_GROUP
350
12
3
ACAD_LAYOUT
350
52
3
ACAD_DGNDEFINITIONS
350
F
3
ACAD_DWFDEFINITIONS
350
10
3
ACAD_PDFDEFINITIONS
350
11
3
ACAD_MLINESTYLE
350
B
3
ACAD_IMAGE_DICT
350
E
3
ACAD_IMAGE_VARS
350
21
0
DICTIONARY
5
12
330
15C
100
AcDbDictionary
280
1
281
1
0
DICTIONARY
5
52
330
15C
100
AcDbDictionary
280
1
281
1
3
Model
350
20
3
Layout1
350
54
0
DICTIONARY
5
F
330
15C
100
AcDbDictionary
280
1
281
1
0
DICTIONARY
5
10
330
15C
100
AcDbDictionary
280
1
281
1
0
DICTIONARY
5
11
330
15C
100
AcDbDictionary
280
1
281
1
0
DICTIONARY
5
B
330
15C
100
AcDbDictionary
280
1
281
1
3
Standard
350
1B
0
DICTIONARY
5
E
330
15C
100
AcDbDictionary
280
1
281
1
0
DICTIONARY
5
6
330
5
100
AcDbDictionary
280
1
281
1
3
ACAD_LAYERSTATES
360
15D
0
DICTIONARY
5
15D
330
6
100
AcDbDictionary
280
1
281
1
0
LAYOUT
5
20
330
52
100
AcDbPlotSettings
1

2
none_device
4
ISO_A4_(210.00_x_297.00_MM)
6

40
7.5
41
20.0
42
7.5
43
20.0
44
210.0
45
297.0
46
0.0
47
0.0
48
0.0
49
0.0
140
0.0
141
0.0
142
1.0
143
1.0
70
11952
72
1
73
1
74
1
7

75
0
76
0
77
2
78
300
147
1.0
148
0.0
149
0.0
100
AcDbLayout
1
Model
71
0
10
-20.0
20
-7.5
11
277.0
21
202.5
12
0.0
22
0.0
32
0.0
14
25.7
24
19.5
34
0.0
15
231.3
25
175.5
35
0.0
146
0.0
13
0.0
23
0.0
33
0.0
16
1.0
26
0.0
36
0.0
17
0.0
27
1.0
37
0.0
76
0
330
1C
0
LAYOUT
5
54
330
52
100
AcDbPlotSettings
1

2
none_device
4
ISO_A4_(210.00_x_297.00_MM)
6

40
7.5
41
20.0
42
7.5
43
20.0
44
210.0
45
297.0
46
0.0
47
0.0
48
0.0
49
0.0
140
0.0
141
0.0
142
1.0
143
1.0
70
688
72
1
73
1
74
1
7

75
0
76
0
77
2
78
300
147
1.0
148
0.0
149
0.0
100
AcDbLayout
1
Layout1
71
1
10
-20.0
20
-7.5
11
277.0
21
202.5
12
0.0
22
0.0
32
0.0
14
25.7
24
19.5
34
0.0
15
231.3
25
175.5
35
0.0
146
0.0
13
0.0
23
0.0
33
0.0
16
1.0
26
0.0
36
0.0
17
0.0
27
1.0
37
0.0
76
0
330
4F
0
MLINESTYLE
5
1B
330
B
100
AcDbMlineStyle
2
Standard
70
0
3

62
256
51
90.0
52
90.0
71
2
49
0.5
62
256
6
ByLayer
49
-0.5
62
256
6
ByLayer
0
RASTERVARIABLES
5
21
330
E
100
AcDbRasterVariables
90
0
70
1
71
1
72
0
0
ENDSEC
0
EOF
